<svg xmlns="http://www.w3.org/2000/svg" xmlns:xlink="http://www.w3.org/1999/xlink" id="Layer_1" x="0px" y="0px" viewBox="0 0 353 218" style="enable-background:new 0 0 353 218;" xml:space="preserve"><style type="text/css">	.st0{fill:#FFFFFF;}	.st1{fill:none;stroke:#D7C49A;stroke-dasharray:4,4;}	.st2{fill:#D7C49A;}</style><circle class="st0" cx="174" cy="139" r="73"></circle><path class="st0" d="M30.8,190l-1.9-2.7c-0.1,0-0.2,0-0.4,0h-2.1v2.7h-1.7v-9.1h3.7c0.8,0,1.5,0.1,2.1,0.4c0.6,0.3,1,0.6,1.4,1.1 s0.5,1.1,0.5,1.7c0,0.7-0.2,1.3-0.5,1.8s-0.8,0.9-1.4,1.1l2.1,3H30.8z M30.8,184.1c0-0.6-0.2-1-0.6-1.3s-0.9-0.5-1.7-0.5h-2v3.6h2 c0.7,0,1.3-0.2,1.7-0.5C30.6,185.2,30.8,184.7,30.8,184.1z M34.2,183.1h1.6v6.9h-1.6V183.1z M35,181.9c-0.3,0-0.5-0.1-0.7-0.3 s-0.3-0.4-0.3-0.7s0.1-0.5,0.3-0.7s0.4-0.3,0.7-0.3s0.5,0.1,0.7,0.3s0.3,0.4,0.3,0.7s-0.1,0.5-0.3,0.7 C35.6,181.8,35.3,181.9,35,181.9z M44.9,183.1v5.9c0,2.4-1.2,3.7-3.7,3.7c-0.7,0-1.3-0.1-1.9-0.3c-0.6-0.2-1.1-0.4-1.5-0.7l0.7-1.2 c0.3,0.3,0.7,0.5,1.1,0.6c0.5,0.2,0.9,0.2,1.4,0.2c0.8,0,1.3-0.2,1.7-0.5s0.5-0.9,0.5-1.6v-0.4c-0.3,0.3-0.6,0.5-1,0.7 s-0.8,0.2-1.3,0.2c-0.7,0-1.3-0.1-1.8-0.4c-0.5-0.3-0.9-0.7-1.3-1.2c-0.3-0.5-0.5-1.1-0.5-1.8s0.2-1.2,0.5-1.7s0.7-0.9,1.3-1.2 c0.5-0.3,1.1-0.4,1.8-0.4c0.5,0,1,0.1,1.4,0.2c0.4,0.2,0.8,0.4,1,0.8v-0.9L44.9,183.1L44.9,183.1z M41.2,188.3 c0.6,0,1.1-0.2,1.5-0.5c0.4-0.4,0.6-0.9,0.6-1.4c0-0.6-0.2-1.1-0.6-1.4c-0.4-0.4-0.9-0.5-1.5-0.5s-1.1,0.2-1.5,0.5 c-0.4,0.4-0.6,0.8-0.6,1.4c0,0.6,0.2,1.1,0.6,1.4C40,188.1,40.5,188.3,41.2,188.3z M50.9,183c0.9,0,1.6,0.3,2.1,0.8s0.8,1.3,0.8,2.3 v4h-1.6v-3.8c0-0.6-0.1-1.1-0.4-1.4c-0.3-0.3-0.7-0.5-1.2-0.5c-0.6,0-1.1,0.2-1.4,0.5c-0.3,0.4-0.5,0.9-0.5,1.5v3.5H47v-9.6h1.6v3.5 c0.3-0.3,0.6-0.5,1-0.6C50,183.1,50.5,183,50.9,183z M60.1,189.6c-0.2,0.2-0.4,0.3-0.7,0.4c-0.3,0.1-0.6,0.1-0.9,0.1 c-0.8,0-1.4-0.2-1.8-0.6s-0.6-1-0.6-1.7v-3.3H55v-1.3h1.1v-1.6h1.6v1.6h1.9v1.3h-1.9v3.3c0,0.3,0.1,0.6,0.2,0.8 c0.2,0.2,0.4,0.3,0.7,0.3c0.4,0,0.7-0.1,0.9-0.3L60.1,189.6z M18.1,207.1c-0.7,0-1.4-0.1-2-0.3s-1.2-0.5-1.5-0.8l0.6-1.3 c0.4,0.3,0.8,0.5,1.4,0.7c0.5,0.2,1.1,0.3,1.6,0.3c0.7,0,1.2-0.1,1.5-0.3s0.5-0.5,0.5-0.9c0-0.3-0.1-0.5-0.3-0.6 c-0.2-0.2-0.4-0.3-0.7-0.4c-0.3-0.1-0.7-0.2-1.2-0.3c-0.7-0.2-1.3-0.3-1.7-0.5c-0.4-0.2-0.8-0.4-1.1-0.8c-0.3-0.4-0.5-0.8-0.5-1.4 c0-0.5,0.1-1,0.4-1.4c0.3-0.4,0.7-0.7,1.2-1c0.6-0.2,1.2-0.4,2-0.4c0.6,0,1.1,0.1,1.6,0.2c0.5,0.1,1,0.3,1.4,0.6l-0.5,1.3 c-0.4-0.2-0.8-0.4-1.2-0.5c-0.4-0.1-0.9-0.2-1.3-0.2c-0.7,0-1.2,0.1-1.5,0.3s-0.5,0.5-0.5,0.9c0,0.3,0.1,0.5,0.3,0.6 c0.2,0.2,0.4,0.3,0.7,0.4c0.3,0.1,0.7,0.2,1.2,0.3c0.7,0.2,1.2,0.3,1.7,0.5c0.4,0.2,0.8,0.4,1.1,0.8c0.3,0.3,0.5,0.8,0.5,1.4 c0,0.5-0.1,1-0.4,1.4s-0.7,0.7-1.2,1C19.6,207,18.9,207.1,18.1,207.1z M29.7,200.1l-3.2,7.5c-0.3,0.8-0.7,1.3-1.1,1.6 s-1,0.5-1.6,0.5c-0.3,0-0.7-0.1-1-0.2c-0.3-0.1-0.6-0.3-0.8-0.5l0.6-1.2c0.2,0.1,0.3,0.3,0.5,0.4c0.2,0.1,0.4,0.1,0.6,0.1 c0.3,0,0.5-0.1,0.7-0.2c0.2-0.1,0.4-0.4,0.5-0.7l0.1-0.3l-3-7h1.7l2.2,5.1l2.2-5.1L29.7,200.1L29.7,200.1z M32.7,207.1 c-0.6,0-1.1-0.1-1.7-0.2c-0.5-0.1-1-0.3-1.3-0.6l0.6-1.2c0.3,0.2,0.7,0.4,1.1,0.5s0.9,0.2,1.3,0.2c1,0,1.5-0.3,1.5-0.8 c0-0.2-0.1-0.4-0.4-0.5c-0.2-0.1-0.6-0.2-1.2-0.3c-0.6-0.1-1-0.2-1.4-0.3s-0.7-0.3-0.9-0.6c-0.3-0.3-0.4-0.7-0.4-1.2 c0-0.7,0.3-1.2,0.8-1.6c0.6-0.4,1.3-0.6,2.2-0.6c0.5,0,1,0.1,1.4,0.2c0.5,0.1,0.9,0.2,1.2,0.4l-0.6,1.2c-0.6-0.3-1.3-0.5-2-0.5 c-0.5,0-0.8,0.1-1.1,0.2c-0.2,0.1-0.4,0.3-0.4,0.6s0.1,0.4,0.4,0.6c0.3,0.1,0.7,0.2,1.2,0.3c0.6,0.1,1,0.2,1.4,0.3s0.7,0.3,0.9,0.6 c0.3,0.3,0.4,0.6,0.4,1.1c0,0.6-0.3,1.2-0.8,1.6C34.5,206.9,33.7,207.1,32.7,207.1z M41.4,206.6c-0.2,0.2-0.4,0.3-0.7,0.4 c-0.3,0.1-0.6,0.1-0.9,0.1c-0.8,0-1.4-0.2-1.8-0.6s-0.6-1-0.6-1.7v-3.3h-1.1v-1.3h1.1v-1.6H39v1.6h2v1.3h-1.9v3.3 c0,0.3,0.1,0.6,0.2,0.8c0.2,0.2,0.4,0.3,0.7,0.3c0.4,0,0.7-0.1,0.9-0.3L41.4,206.6z M49.1,203.6c0,0.1,0,0.3,0,0.5h-5.4 c0.1,0.5,0.3,0.9,0.7,1.2s0.9,0.4,1.5,0.4c0.8,0,1.4-0.3,1.9-0.8l0.9,1c-0.3,0.4-0.7,0.7-1.2,0.8c-0.5,0.2-1,0.3-1.6,0.3 c-0.8,0-1.4-0.2-2-0.5s-1-0.7-1.4-1.3c-0.3-0.5-0.5-1.2-0.5-1.8c0-0.7,0.2-1.3,0.5-1.8s0.7-1,1.3-1.3c0.5-0.3,1.2-0.5,1.8-0.5 c0.7,0,1.3,0.2,1.8,0.5s1,0.7,1.2,1.3C48.9,202.2,49.1,202.9,49.1,203.6z M45.6,201.3c-0.5,0-1,0.2-1.3,0.5 c-0.4,0.3-0.6,0.7-0.6,1.2h3.9c-0.1-0.5-0.3-0.9-0.6-1.2S46.1,201.3,45.6,201.3z M59.4,200c0.9,0,1.6,0.3,2.1,0.8s0.8,1.3,0.8,2.3v4 h-1.6v-3.8c0-0.6-0.1-1.1-0.4-1.4c-0.3-0.3-0.7-0.5-1.2-0.5s-1,0.2-1.3,0.5c-0.3,0.4-0.5,0.9-0.5,1.5v3.5h-1.6v-3.8 c0-0.6-0.1-1.1-0.4-1.4c-0.3-0.3-0.7-0.5-1.2-0.5c-0.6,0-1,0.2-1.3,0.5c-0.3,0.4-0.5,0.9-0.5,1.5v3.5h-1.6v-6.9h1.5v0.9 c0.3-0.3,0.6-0.6,1-0.7c0.4-0.2,0.8-0.2,1.3-0.2s1,0.1,1.4,0.3s0.7,0.5,1,0.9c0.3-0.4,0.7-0.6,1.1-0.8C58.4,200.1,58.9,200,59.4,200 z M66.5,207.1c-0.6,0-1.1-0.1-1.7-0.2c-0.5-0.1-1-0.3-1.3-0.6l0.6-1.2c0.3,0.2,0.7,0.4,1.1,0.5s0.9,0.2,1.3,0.2c1,0,1.5-0.3,1.5-0.8 c0-0.2-0.1-0.4-0.4-0.5c-0.2-0.1-0.6-0.2-1.2-0.3s-1-0.2-1.4-0.3s-0.7-0.3-0.9-0.6c-0.3-0.3-0.4-0.7-0.4-1.2c0-0.7,0.3-1.2,0.8-1.6 c0.6-0.4,1.3-0.6,2.2-0.6c0.5,0,1,0.1,1.4,0.2c0.5,0.1,0.9,0.2,1.2,0.4l-0.6,1.2c-0.6-0.3-1.3-0.5-2-0.5c-0.5,0-0.8,0.1-1.1,0.2 c-0.2,0.1-0.4,0.3-0.4,0.6s0.1,0.4,0.4,0.6c0.3,0.1,0.7,0.2,1.2,0.3c0.6,0.1,1,0.2,1.4,0.3s0.7,0.3,0.9,0.6c0.3,0.3,0.4,0.6,0.4,1.1 c0,0.6-0.3,1.2-0.8,1.6C68.2,206.9,67.4,207.1,66.5,207.1z"></path><path class="st0" d="M298.8,190l-1.9-2.7c-0.1,0-0.2,0-0.4,0h-2.1v2.7h-1.7v-9.1h3.7c0.8,0,1.5,0.1,2.1,0.4c0.6,0.3,1,0.6,1.4,1.1 c0.3,0.5,0.5,1.1,0.5,1.7c0,0.7-0.2,1.3-0.5,1.8s-0.8,0.9-1.4,1.1l2.1,3H298.8z M298.8,184.1c0-0.6-0.2-1-0.6-1.3s-0.9-0.5-1.7-0.5 h-2v3.6h2c0.7,0,1.3-0.2,1.7-0.5C298.6,185.2,298.8,184.7,298.8,184.1z M302.2,183.1h1.6v6.9h-1.6V183.1z M303,181.9 c-0.3,0-0.5-0.1-0.7-0.3s-0.3-0.4-0.3-0.7s0.1-0.5,0.3-0.7c0.2-0.2,0.4-0.3,0.7-0.3c0.3,0,0.5,0.1,0.7,0.3s0.3,0.4,0.3,0.7 s-0.1,0.5-0.3,0.7C303.6,181.8,303.3,181.9,303,181.9z M312.9,183.1v5.9c0,2.4-1.2,3.7-3.7,3.7c-0.7,0-1.3-0.1-1.9-0.3 s-1.1-0.4-1.5-0.7l0.7-1.2c0.3,0.3,0.7,0.5,1.1,0.6c0.5,0.2,0.9,0.2,1.4,0.2c0.8,0,1.3-0.2,1.7-0.5c0.4-0.3,0.5-0.9,0.5-1.6v-0.4 c-0.3,0.3-0.6,0.5-1,0.7s-0.8,0.2-1.3,0.2c-0.7,0-1.3-0.1-1.8-0.4c-0.5-0.3-0.9-0.7-1.3-1.2c-0.3-0.5-0.5-1.1-0.5-1.8 s0.2-1.2,0.5-1.7s0.7-0.9,1.3-1.2c0.5-0.3,1.1-0.4,1.8-0.4c0.5,0,1,0.1,1.4,0.2c0.4,0.2,0.8,0.4,1,0.8v-0.9L312.9,183.1L312.9,183.1 z M309.2,188.3c0.6,0,1.1-0.2,1.5-0.5c0.4-0.4,0.6-0.9,0.6-1.4c0-0.6-0.2-1.1-0.6-1.4c-0.4-0.4-0.9-0.5-1.5-0.5s-1.1,0.2-1.5,0.5 c-0.4,0.4-0.6,0.8-0.6,1.4c0,0.6,0.2,1.1,0.6,1.4C308,188.1,308.5,188.3,309.2,188.3z M318.9,183c0.9,0,1.6,0.3,2.1,0.8 s0.8,1.3,0.8,2.3v4h-1.6v-3.8c0-0.6-0.1-1.1-0.4-1.4c-0.3-0.3-0.7-0.5-1.2-0.5c-0.6,0-1.1,0.2-1.4,0.5c-0.3,0.4-0.5,0.9-0.5,1.5v3.5 H315v-9.6h1.6v3.5c0.3-0.3,0.6-0.5,1-0.6C318,183.1,318.5,183,318.9,183z M328.1,189.6c-0.2,0.2-0.4,0.3-0.7,0.4 c-0.3,0.1-0.6,0.1-0.9,0.1c-0.8,0-1.4-0.2-1.8-0.6c-0.4-0.4-0.6-1-0.6-1.7v-3.3H323v-1.3h1.1v-1.6h1.6v1.6h1.9v1.3h-1.9v3.3 c0,0.3,0.1,0.6,0.2,0.8c0.2,0.2,0.4,0.3,0.7,0.3c0.4,0,0.7-0.1,0.9-0.3L328.1,189.6z M280.1,207.1c-0.7,0-1.4-0.1-2-0.3 s-1.2-0.5-1.5-0.8l0.6-1.3c0.4,0.3,0.8,0.5,1.4,0.7c0.5,0.2,1.1,0.3,1.6,0.3c0.7,0,1.2-0.1,1.5-0.3s0.5-0.5,0.5-0.9 c0-0.3-0.1-0.5-0.3-0.6c-0.2-0.2-0.4-0.3-0.7-0.4c-0.3-0.1-0.7-0.2-1.2-0.3c-0.7-0.2-1.3-0.3-1.7-0.5c-0.4-0.2-0.8-0.4-1.1-0.8 c-0.3-0.4-0.5-0.8-0.5-1.4c0-0.5,0.1-1,0.4-1.4s0.7-0.7,1.2-1c0.6-0.2,1.2-0.4,2-0.4c0.6,0,1.1,0.1,1.6,0.2c0.5,0.1,1,0.3,1.4,0.6 l-0.5,1.3c-0.4-0.2-0.8-0.4-1.2-0.5c-0.4-0.1-0.9-0.2-1.3-0.2c-0.7,0-1.2,0.1-1.5,0.3s-0.5,0.5-0.5,0.9c0,0.3,0.1,0.5,0.3,0.6 c0.2,0.2,0.4,0.3,0.7,0.4c0.3,0.1,0.7,0.2,1.2,0.3c0.7,0.2,1.2,0.3,1.7,0.5c0.4,0.2,0.8,0.4,1.1,0.8c0.3,0.3,0.5,0.8,0.5,1.4 c0,0.5-0.1,1-0.4,1.4s-0.7,0.7-1.2,1C281.6,207,280.9,207.1,280.1,207.1z M289.5,206.6c-0.2,0.2-0.4,0.3-0.7,0.4 c-0.3,0.1-0.6,0.1-0.9,0.1c-0.8,0-1.4-0.2-1.8-0.6c-0.4-0.4-0.6-1-0.6-1.7v-3.3h-1.1v-1.3h1.1v-1.6h1.6v1.6h1.9v1.3h-1.9v3.3 c0,0.3,0.1,0.6,0.2,0.8c0.2,0.2,0.4,0.3,0.7,0.3c0.4,0,0.7-0.1,0.9-0.3L289.5,206.6z M292.4,201.1c0.5-0.7,1.3-1.1,2.5-1.1v1.5 c-0.1,0-0.3,0-0.4,0c-0.6,0-1.1,0.2-1.5,0.6c-0.4,0.4-0.5,0.9-0.5,1.6v3.4h-1.6v-6.9h1.5V201.1z M298.8,200c1,0,1.8,0.2,2.3,0.7 s0.8,1.2,0.8,2.2v4.1h-1.5v-0.8c-0.2,0.3-0.5,0.5-0.9,0.7s-0.8,0.2-1.3,0.2s-1-0.1-1.4-0.3s-0.7-0.4-0.9-0.7 c-0.2-0.3-0.3-0.7-0.3-1.1c0-0.6,0.2-1.1,0.7-1.5s1.2-0.6,2.2-0.6h1.8v-0.1c0-0.5-0.1-0.9-0.4-1.1c-0.3-0.3-0.7-0.4-1.3-0.4 c-0.4,0-0.8,0.1-1.2,0.2c-0.4,0.1-0.7,0.3-0.9,0.5l-0.6-1.2c0.4-0.3,0.8-0.5,1.3-0.6C297.7,200.1,298.3,200,298.8,200z M298.6,205.9 c0.4,0,0.8-0.1,1.1-0.3c0.3-0.2,0.5-0.5,0.7-0.8V204h-1.7c-0.9,0-1.4,0.3-1.4,0.9c0,0.3,0.1,0.5,0.4,0.7 C297.9,205.8,298.2,205.9,298.6,205.9z M308.2,206.6c-0.2,0.2-0.4,0.3-0.7,0.4c-0.3,0.1-0.6,0.1-0.9,0.1c-0.8,0-1.4-0.2-1.8-0.6 c-0.4-0.4-0.6-1-0.6-1.7v-3.3h-1.1v-1.3h1.1v-1.6h1.6v1.6h1.9v1.3h-1.9v3.3c0,0.3,0.1,0.6,0.2,0.8c0.2,0.2,0.4,0.3,0.7,0.3 c0.4,0,0.7-0.1,0.9-0.3L308.2,206.6z M315.9,203.6c0,0.1,0,0.3,0,0.5h-5.4c0.1,0.5,0.3,0.9,0.7,1.2c0.4,0.3,0.9,0.4,1.5,0.4 c0.8,0,1.4-0.3,1.9-0.8l0.9,1c-0.3,0.4-0.7,0.7-1.2,0.8c-0.5,0.2-1,0.3-1.6,0.3c-0.8,0-1.4-0.2-2-0.5s-1-0.7-1.4-1.3 c-0.3-0.5-0.5-1.2-0.5-1.8c0-0.7,0.2-1.3,0.5-1.8s0.7-1,1.3-1.3c0.5-0.3,1.2-0.5,1.8-0.5c0.7,0,1.3,0.2,1.8,0.5s1,0.7,1.2,1.3 C315.7,202.2,315.9,202.9,315.9,203.6z M312.4,201.3c-0.5,0-1,0.2-1.3,0.5c-0.4,0.3-0.6,0.7-0.6,1.2h3.9c-0.1-0.5-0.3-0.9-0.6-1.2 S312.9,201.3,312.4,201.3z M324.3,200.1v5.9c0,2.4-1.2,3.7-3.7,3.7c-0.7,0-1.3-0.1-1.9-0.3s-1.1-0.4-1.5-0.7l0.7-1.2 c0.3,0.3,0.7,0.5,1.1,0.6c0.5,0.2,0.9,0.2,1.4,0.2c0.8,0,1.3-0.2,1.7-0.5c0.4-0.3,0.5-0.9,0.5-1.6v-0.4c-0.3,0.3-0.6,0.5-1,0.7 s-0.8,0.2-1.3,0.2c-0.7,0-1.3-0.1-1.8-0.4c-0.5-0.3-0.9-0.7-1.3-1.2c-0.3-0.5-0.5-1.1-0.5-1.8s0.2-1.2,0.5-1.7s0.7-0.9,1.3-1.2 c0.5-0.3,1.1-0.4,1.8-0.4c0.5,0,1,0.1,1.4,0.2c0.4,0.2,0.8,0.4,1,0.8v-0.9L324.3,200.1L324.3,200.1z M320.6,205.3 c0.6,0,1.1-0.2,1.5-0.5c0.4-0.4,0.6-0.9,0.6-1.4c0-0.6-0.2-1.1-0.6-1.4c-0.4-0.4-0.9-0.5-1.5-0.5s-1.1,0.2-1.5,0.5 c-0.4,0.4-0.6,0.8-0.6,1.4c0,0.6,0.2,1.1,0.6,1.4C319.5,205.1,320,205.3,320.6,205.3z M326.5,200.1h1.6v6.9h-1.6V200.1z  M327.3,198.9c-0.3,0-0.5-0.1-0.7-0.3s-0.3-0.4-0.3-0.7s0.1-0.5,0.3-0.7c0.2-0.2,0.4-0.3,0.7-0.3c0.3,0,0.5,0.1,0.7,0.3 s0.3,0.4,0.3,0.7s-0.1,0.5-0.3,0.7C327.8,198.8,327.6,198.9,327.3,198.9z M336.7,203.6c0,0.1,0,0.3,0,0.5h-5.4 c0.1,0.5,0.3,0.9,0.7,1.2c0.4,0.3,0.9,0.4,1.5,0.4c0.8,0,1.4-0.3,1.9-0.8l0.9,1c-0.3,0.4-0.7,0.7-1.2,0.8c-0.5,0.2-1,0.3-1.6,0.3 c-0.8,0-1.4-0.2-2-0.5s-1-0.7-1.4-1.3c-0.3-0.5-0.5-1.2-0.5-1.8c0-0.7,0.2-1.3,0.5-1.8s0.7-1,1.3-1.3c0.5-0.3,1.2-0.5,1.8-0.5 c0.7,0,1.3,0.2,1.8,0.5s1,0.7,1.2,1.3C336.6,202.2,336.7,202.9,336.7,203.6z M333.2,201.3c-0.5,0-1,0.2-1.3,0.5 c-0.4,0.3-0.6,0.7-0.6,1.2h3.9c-0.1-0.5-0.3-0.9-0.6-1.2C334.2,201.4,333.8,201.3,333.2,201.3z M340.5,207.1c-0.6,0-1.1-0.1-1.7-0.2 c-0.5-0.1-1-0.3-1.3-0.6l0.6-1.2c0.3,0.2,0.7,0.4,1.1,0.5s0.9,0.2,1.3,0.2c1,0,1.5-0.3,1.5-0.8c0-0.2-0.1-0.4-0.4-0.5 c-0.2-0.1-0.6-0.2-1.2-0.3s-1-0.2-1.4-0.3s-0.7-0.3-0.9-0.6c-0.3-0.3-0.4-0.7-0.4-1.2c0-0.7,0.3-1.2,0.8-1.6 c0.6-0.4,1.3-0.6,2.2-0.6c0.5,0,1,0.1,1.4,0.2c0.5,0.1,0.9,0.2,1.2,0.4l-0.6,1.2c-0.6-0.3-1.3-0.5-2-0.5c-0.5,0-0.8,0.1-1.1,0.2 c-0.2,0.1-0.4,0.3-0.4,0.6s0.1,0.4,0.4,0.6c0.3,0.1,0.7,0.2,1.2,0.3c0.6,0.1,1,0.2,1.4,0.3s0.7,0.3,0.9,0.6c0.3,0.3,0.4,0.6,0.4,1.1 c0,0.6-0.3,1.2-0.8,1.6C342.2,206.9,341.4,207.1,340.5,207.1z"></path><path class="st1" d="M100,0.5h149c5.2,0,9.5,4.3,9.5,9.5v29c0,5.2-4.3,9.5-9.5,9.5H100c-5.2,0-9.5-4.3-9.5-9.5V10 C90.5,4.8,94.8,0.5,100,0.5z"></path><path class="st1" d="M10,169.5h65c5.2,0,9.5,4.3,9.5,9.5v29c0,5.2-4.3,9.5-9.5,9.5H10c-5.2,0-9.5-4.3-9.5-9.5v-29 C0.5,173.8,4.8,169.5,10,169.5z"></path><path class="st1" d="M272,169.5h71c5.2,0,9.5,4.3,9.5,9.5v29c0,5.2-4.3,9.5-9.5,9.5h-71c-5.2,0-9.5-4.3-9.5-9.5v-29 C262.5,173.8,266.8,169.5,272,169.5z"></path><path class="st0" d="M113.4,20l-1.9-2.7c-0.1,0-0.2,0-0.4,0H109V20h-1.7v-9.1h3.7c0.8,0,1.5,0.1,2.1,0.4c0.6,0.3,1,0.6,1.4,1.1 c0.3,0.5,0.5,1.1,0.5,1.7c0,0.7-0.2,1.3-0.5,1.8s-0.8,0.9-1.4,1.1l2.1,3H113.4z M113.4,14.1c0-0.6-0.2-1-0.6-1.3s-0.9-0.5-1.7-0.5 h-2V16h2c0.7,0,1.3-0.2,1.7-0.5S113.4,14.7,113.4,14.1z M116.8,13.1h1.6V20h-1.6V13.1z M117.7,11.9c-0.3,0-0.5-0.1-0.7-0.3 s-0.3-0.4-0.3-0.7s0.1-0.5,0.3-0.7c0.2-0.2,0.4-0.3,0.7-0.3c0.3,0,0.5,0.1,0.7,0.3s0.3,0.4,0.3,0.7s-0.1,0.5-0.3,0.7 C118.2,11.8,118,11.9,117.7,11.9z M127.5,13.1V19c0,2.4-1.2,3.7-3.7,3.7c-0.7,0-1.3-0.1-1.9-0.3c-0.6-0.2-1.1-0.4-1.5-0.7l0.7-1.2 c0.3,0.3,0.7,0.5,1.1,0.6c0.5,0.2,0.9,0.2,1.4,0.2c0.8,0,1.3-0.2,1.7-0.5c0.4-0.3,0.5-0.9,0.5-1.6v-0.4c-0.3,0.3-0.6,0.5-1,0.7 s-0.8,0.2-1.3,0.2c-0.7,0-1.3-0.1-1.8-0.4s-0.9-0.7-1.3-1.2c-0.3-0.5-0.5-1.1-0.5-1.8c0-0.7,0.2-1.2,0.5-1.7s0.7-0.9,1.3-1.2 c0.5-0.3,1.1-0.4,1.8-0.4c0.5,0,1,0.1,1.4,0.2c0.4,0.2,0.8,0.4,1,0.8v-0.9C125.9,13.1,127.5,13.1,127.5,13.1z M123.8,18.3 c0.6,0,1.1-0.2,1.5-0.5c0.4-0.4,0.6-0.9,0.6-1.4c0-0.6-0.2-1.1-0.6-1.4c-0.4-0.4-0.9-0.5-1.5-0.5s-1.1,0.2-1.5,0.5 c-0.4,0.4-0.6,0.8-0.6,1.4c0,0.6,0.2,1.1,0.6,1.4C122.7,18.1,123.2,18.3,123.8,18.3z M133.6,13c0.9,0,1.6,0.3,2.1,0.8 s0.8,1.3,0.8,2.3v4h-1.6v-3.8c0-0.6-0.1-1.1-0.4-1.4c-0.3-0.3-0.7-0.5-1.2-0.5c-0.6,0-1.1,0.2-1.4,0.5c-0.3,0.4-0.5,0.9-0.5,1.5V20 h-1.6v-9.6h1.6v3.5c0.3-0.3,0.6-0.5,1-0.7C132.6,13.1,133.1,13,133.6,13z M142.7,19.6c-0.2,0.2-0.4,0.3-0.7,0.4s-0.6,0.1-0.9,0.1 c-0.8,0-1.4-0.2-1.8-0.6s-0.6-1-0.6-1.7v-3.3h-1.1v-1.3h1.1v-1.6h1.6v1.6h1.9v1.3h-1.9v3.3c0,0.3,0.1,0.6,0.2,0.8 c0.2,0.2,0.4,0.3,0.7,0.3c0.4,0,0.7-0.1,0.9-0.3L142.7,19.6z M151.5,10.9c0.8,0,1.5,0.1,2.1,0.4c0.6,0.3,1,0.6,1.4,1.1 c0.3,0.5,0.5,1.1,0.5,1.7c0,0.7-0.2,1.2-0.5,1.7s-0.8,0.9-1.4,1.1c-0.6,0.3-1.3,0.4-2.1,0.4h-2.1V20h-1.7v-9.1H151.5z M151.5,15.9 c0.7,0,1.3-0.2,1.7-0.5s0.6-0.8,0.6-1.3s-0.2-1-0.6-1.3c-0.4-0.3-0.9-0.5-1.7-0.5h-2v3.6H151.5z M159.2,20.1c-0.6,0-1.1-0.1-1.7-0.2 c-0.5-0.1-1-0.3-1.3-0.6l0.6-1.2c0.3,0.2,0.7,0.4,1.1,0.5c0.4,0.1,0.9,0.2,1.3,0.2c1,0,1.5-0.3,1.5-0.8c0-0.2-0.1-0.4-0.4-0.5 c-0.2-0.1-0.6-0.2-1.2-0.3c-0.6-0.1-1-0.2-1.4-0.3c-0.4-0.1-0.7-0.3-0.9-0.6c-0.3-0.3-0.4-0.7-0.4-1.2c0-0.7,0.3-1.2,0.8-1.6 c0.6-0.4,1.3-0.6,2.2-0.6c0.5,0,1,0.1,1.4,0.2c0.5,0.1,0.9,0.2,1.2,0.4l-0.6,1.2c-0.6-0.3-1.3-0.5-2-0.5c-0.5,0-0.8,0.1-1.1,0.2 c-0.2,0.1-0.4,0.3-0.4,0.6s0.1,0.4,0.4,0.6c0.3,0.1,0.7,0.2,1.2,0.3c0.6,0.1,1,0.2,1.4,0.3s0.7,0.3,0.9,0.6c0.3,0.3,0.4,0.6,0.4,1.1 c0,0.7-0.3,1.2-0.8,1.6C160.9,19.9,160.2,20.1,159.2,20.1z M170.1,13.1l-3.2,7.5c-0.3,0.8-0.7,1.3-1.1,1.6c-0.4,0.3-1,0.5-1.6,0.5 c-0.3,0-0.7-0.1-1-0.2s-0.6-0.3-0.8-0.5l0.6-1.2c0.2,0.1,0.3,0.3,0.5,0.4s0.4,0.1,0.6,0.1c0.3,0,0.5-0.1,0.7-0.2s0.4-0.4,0.5-0.7 l0.1-0.3l-3-7h1.7l2.2,5.1l2.2-5.1C168.5,13.1,170.1,13.1,170.1,13.1z M174.1,20.1c-0.7,0-1.4-0.2-1.9-0.5c-0.6-0.3-1-0.7-1.3-1.3 c-0.3-0.5-0.5-1.2-0.5-1.8c0-0.7,0.2-1.3,0.5-1.8s0.8-1,1.3-1.3c0.6-0.3,1.2-0.5,1.9-0.5s1.3,0.1,1.8,0.4c0.5,0.3,0.9,0.7,1.2,1.2 l-1.2,0.7c-0.2-0.3-0.5-0.6-0.8-0.7c-0.3-0.2-0.6-0.2-1-0.2c-0.6,0-1.1,0.2-1.5,0.6c-0.4,0.4-0.6,0.9-0.6,1.6s0.2,1.2,0.6,1.6 c0.4,0.4,0.9,0.6,1.5,0.6c0.4,0,0.7-0.1,1-0.2c0.3-0.2,0.6-0.4,0.8-0.7l1.2,0.7c-0.3,0.5-0.7,0.9-1.2,1.2 C175.4,20,174.8,20.1,174.1,20.1z M182.4,13c0.9,0,1.6,0.3,2.1,0.8s0.8,1.3,0.8,2.3v4h-1.6v-3.8c0-0.6-0.1-1.1-0.4-1.4 c-0.3-0.3-0.7-0.5-1.2-0.5c-0.6,0-1.1,0.2-1.4,0.5c-0.3,0.4-0.5,0.9-0.5,1.5V20h-1.6v-9.6h1.6v3.5c0.3-0.3,0.6-0.5,1-0.7 C181.5,13.1,181.9,13,182.4,13z M190.5,20.1c-0.7,0-1.3-0.2-1.9-0.5c-0.6-0.3-1-0.7-1.3-1.3c-0.3-0.5-0.5-1.2-0.5-1.8 c0-0.7,0.2-1.3,0.5-1.8s0.8-1,1.3-1.3c0.6-0.3,1.2-0.5,1.9-0.5s1.3,0.2,1.9,0.5c0.6,0.3,1,0.7,1.3,1.3c0.3,0.5,0.5,1.1,0.5,1.8 c0,0.7-0.2,1.3-0.5,1.8s-0.7,1-1.3,1.3C191.9,19.9,191.2,20.1,190.5,20.1z M190.5,18.7c0.6,0,1.1-0.2,1.5-0.6s0.6-0.9,0.6-1.6 c0-0.6-0.2-1.2-0.6-1.6c-0.4-0.4-0.9-0.6-1.5-0.6s-1.1,0.2-1.5,0.6c-0.4,0.4-0.6,0.9-0.6,1.6s0.2,1.2,0.6,1.6 C189.4,18.5,189.9,18.7,190.5,18.7z M195.8,10.4h1.6V20h-1.6V10.4z M202.7,20.1c-0.7,0-1.3-0.2-1.9-0.5c-0.6-0.3-1-0.7-1.3-1.3 c-0.3-0.5-0.5-1.2-0.5-1.8c0-0.7,0.2-1.3,0.5-1.8s0.8-1,1.3-1.3c0.6-0.3,1.2-0.5,1.9-0.5s1.3,0.2,1.9,0.5c0.6,0.3,1,0.7,1.3,1.3 c0.3,0.5,0.5,1.1,0.5,1.8c0,0.7-0.2,1.3-0.5,1.8s-0.8,1-1.3,1.3C204,19.9,203.4,20.1,202.7,20.1z M202.7,18.7c0.6,0,1.1-0.2,1.5-0.6 s0.6-0.9,0.6-1.6c0-0.6-0.2-1.2-0.6-1.6c-0.4-0.4-0.9-0.6-1.5-0.6s-1.1,0.2-1.5,0.6c-0.4,0.4-0.6,0.9-0.6,1.6s0.2,1.2,0.6,1.6 S202.1,18.7,202.7,18.7z M214.8,13.1V19c0,2.4-1.2,3.7-3.7,3.7c-0.7,0-1.3-0.1-1.9-0.3c-0.6-0.2-1.1-0.4-1.5-0.7l0.7-1.2 c0.3,0.3,0.7,0.5,1.1,0.6c0.5,0.2,0.9,0.2,1.4,0.2c0.8,0,1.3-0.2,1.7-0.5s0.5-0.9,0.5-1.6v-0.4c-0.3,0.3-0.6,0.5-1,0.7 s-0.8,0.2-1.3,0.2c-0.7,0-1.3-0.1-1.8-0.4s-0.9-0.7-1.3-1.2c-0.3-0.5-0.5-1.1-0.5-1.8c0-0.7,0.2-1.2,0.5-1.7s0.7-0.9,1.3-1.2 c0.5-0.3,1.1-0.4,1.8-0.4c0.5,0,1,0.1,1.4,0.2c0.4,0.2,0.8,0.4,1,0.8v-0.9C213.2,13.1,214.8,13.1,214.8,13.1z M211.1,18.3 c0.6,0,1.1-0.2,1.5-0.5c0.4-0.4,0.6-0.9,0.6-1.4c0-0.6-0.2-1.1-0.6-1.4c-0.4-0.4-0.9-0.5-1.5-0.5s-1.1,0.2-1.5,0.5 c-0.4,0.4-0.6,0.8-0.6,1.4c0,0.6,0.2,1.1,0.6,1.4C210,18.1,210.5,18.3,211.1,18.3z M223.4,13.1l-3.2,7.5c-0.3,0.8-0.7,1.3-1.1,1.6 c-0.4,0.3-1,0.5-1.6,0.5c-0.3,0-0.7-0.1-1-0.2s-0.6-0.3-0.8-0.5l0.7-1.2c0.2,0.1,0.3,0.3,0.5,0.4s0.4,0.1,0.7,0.1s0.5-0.1,0.7-0.2 s0.4-0.4,0.5-0.7l0.1-0.3l-3-7h1.7l2.2,5.1l2.2-5.1C222,13.1,223.4,13.1,223.4,13.1z M232.5,20.1c-0.9,0-1.8-0.2-2.5-0.6 s-1.3-1-1.8-1.7c-0.4-0.7-0.6-1.5-0.6-2.4s0.2-1.7,0.6-2.4c0.4-0.7,1-1.3,1.8-1.7c0.7-0.4,1.6-0.6,2.5-0.6s1.8,0.2,2.5,0.6 c0.7,0.4,1.3,1,1.8,1.7c0.4,0.7,0.6,1.5,0.6,2.4s-0.2,1.7-0.6,2.4c-0.4,0.7-1,1.3-1.8,1.7C234.2,19.9,233.4,20.1,232.5,20.1z  M232.5,18.6c0.6,0,1.2-0.1,1.6-0.4c0.5-0.3,0.9-0.7,1.1-1.1c0.3-0.5,0.4-1,0.4-1.7s-0.1-1.2-0.4-1.6c-0.3-0.5-0.7-0.9-1.1-1.1 c-0.5-0.3-1-0.4-1.6-0.4s-1.2,0.1-1.6,0.4c-0.5,0.3-0.9,0.6-1.1,1.1c-0.3,0.5-0.4,1-0.4,1.6c0,0.6,0.1,1.2,0.4,1.7 c0.3,0.5,0.7,0.9,1.1,1.1C231.3,18.5,231.9,18.6,232.5,18.6z M241.8,11.6c-0.7,0-1,0.4-1,1.1v0.4h1.9v1.3h-1.9V20h-1.6v-5.6h-1.1 v-1.3h1.1v-0.4c0-0.7,0.2-1.3,0.7-1.8c0.4-0.4,1-0.7,1.8-0.7c0.6,0,1.1,0.1,1.5,0.4l-0.5,1.2C242.4,11.7,242.1,11.6,241.8,11.6z  M106.9,37l-1.9-2.7c-0.1,0-0.2,0-0.4,0h-2.1V37h-1.7v-9.1h3.7c0.8,0,1.5,0.1,2.1,0.4s1,0.6,1.4,1.1c0.3,0.5,0.5,1.1,0.5,1.7 c0,0.7-0.2,1.3-0.5,1.8s-0.8,0.9-1.4,1.1l2.1,3H106.9z M106.8,31.1c0-0.6-0.2-1-0.6-1.3s-0.9-0.5-1.7-0.5h-2V33h2 c0.7,0,1.3-0.2,1.7-0.5C106.7,32.2,106.8,31.7,106.8,31.1z M117,30.1V37h-1.5v-0.9c-0.3,0.3-0.6,0.6-1,0.7c-0.4,0.2-0.8,0.2-1.3,0.2 c-0.9,0-1.7-0.3-2.2-0.8s-0.8-1.3-0.8-2.3v-4h1.6v3.7c0,0.6,0.1,1.1,0.4,1.4c0.3,0.3,0.7,0.5,1.2,0.5c0.6,0,1-0.2,1.4-0.5 c0.3-0.4,0.5-0.9,0.5-1.6v-3.5h1.7V30.1z M123.1,30c0.9,0,1.6,0.3,2.1,0.8s0.8,1.3,0.8,2.3v4h-1.6v-3.8c0-0.6-0.1-1.1-0.4-1.4 c-0.3-0.3-0.7-0.5-1.2-0.5c-0.6,0-1.1,0.2-1.4,0.5c-0.3,0.4-0.5,0.9-0.5,1.5V37h-1.6v-6.9h1.5V31c0.3-0.3,0.6-0.6,1-0.7 C122.1,30.1,122.6,30,123.1,30z M132,30c0.9,0,1.6,0.3,2.1,0.8s0.8,1.3,0.8,2.3v4h-1.6v-3.8c0-0.6-0.1-1.1-0.4-1.4 c-0.3-0.3-0.7-0.5-1.2-0.5c-0.6,0-1.1,0.2-1.4,0.5c-0.3,0.4-0.5,0.9-0.5,1.5V37H128v-6.9h1.5V31c0.3-0.3,0.6-0.6,1-0.7 C131,30.1,131.5,30,132,30z M136.9,30.1h1.6V37h-1.6V30.1z M137.8,28.9c-0.3,0-0.5-0.1-0.7-0.3c-0.2-0.2-0.3-0.4-0.3-0.7 s0.1-0.5,0.3-0.7s0.4-0.3,0.7-0.3s0.5,0.1,0.7,0.3c0.2,0.2,0.3,0.4,0.3,0.7c0,0.3-0.1,0.5-0.3,0.7C138.3,28.8,138.1,28.9,137.8,28.9 z M144.6,30c0.9,0,1.6,0.3,2.1,0.8s0.8,1.3,0.8,2.3v4h-1.6v-3.8c0-0.6-0.1-1.1-0.4-1.4c-0.3-0.3-0.7-0.5-1.2-0.5 c-0.6,0-1.1,0.2-1.4,0.5c-0.3,0.4-0.5,0.9-0.5,1.5V37h-1.6v-6.9h1.5V31c0.3-0.3,0.6-0.6,1-0.7C143.7,30.1,144.1,30,144.6,30z  M156.5,30.1V36c0,2.4-1.2,3.7-3.7,3.7c-0.7,0-1.3-0.1-1.9-0.3c-0.6-0.2-1.1-0.4-1.5-0.7l0.7-1.2c0.3,0.3,0.7,0.5,1.1,0.6 c0.5,0.2,0.9,0.2,1.4,0.2c0.8,0,1.3-0.2,1.7-0.5s0.5-0.9,0.5-1.6v-0.4c-0.3,0.3-0.6,0.5-1,0.7s-0.8,0.2-1.3,0.2 c-0.7,0-1.3-0.1-1.8-0.4c-0.5-0.3-0.9-0.7-1.3-1.2c-0.3-0.5-0.5-1.1-0.5-1.8s0.2-1.2,0.5-1.7s0.7-0.9,1.3-1.2 c0.5-0.3,1.1-0.4,1.8-0.4c0.5,0,1,0.1,1.4,0.2c0.4,0.2,0.8,0.4,1,0.8v-0.9C154.9,30.1,156.5,30.1,156.5,30.1z M152.8,35.3 c0.6,0,1.1-0.2,1.5-0.5c0.4-0.4,0.6-0.9,0.6-1.4c0-0.6-0.2-1.1-0.6-1.4c-0.4-0.4-0.9-0.5-1.5-0.5s-1.1,0.2-1.5,0.5 c-0.4,0.4-0.6,0.8-0.6,1.4s0.2,1.1,0.6,1.4C151.7,35.1,152.2,35.3,152.8,35.3z M164.3,29.3h-3v-1.4h7.7v1.4h-3V37h-1.7V29.3z  M174,30c0.9,0,1.6,0.3,2.1,0.8s0.8,1.3,0.8,2.3v4h-1.6v-3.8c0-0.6-0.1-1.1-0.4-1.4c-0.3-0.3-0.7-0.5-1.2-0.5 c-0.6,0-1.1,0.2-1.4,0.5c-0.3,0.4-0.5,0.9-0.5,1.5V37h-1.6v-9.6h1.6v3.5c0.3-0.3,0.6-0.5,1-0.6C173.1,30.1,173.5,30,174,30z  M185.6,33.6c0,0.1,0,0.3,0,0.5h-5.4c0.1,0.5,0.3,0.9,0.7,1.2s0.9,0.4,1.5,0.4c0.8,0,1.4-0.3,1.9-0.8l0.9,1 c-0.3,0.4-0.7,0.7-1.2,0.8c-0.5,0.2-1,0.3-1.6,0.3c-0.8,0-1.4-0.2-2-0.5s-1-0.7-1.4-1.3c-0.3-0.5-0.5-1.2-0.5-1.8 c0-0.7,0.2-1.3,0.5-1.8s0.7-1,1.3-1.3c0.5-0.3,1.2-0.5,1.8-0.5c0.7,0,1.3,0.2,1.8,0.5s1,0.7,1.2,1.3 C185.4,32.2,185.6,32.9,185.6,33.6z M182.1,31.3c-0.5,0-1,0.2-1.3,0.5c-0.4,0.3-0.6,0.7-0.6,1.2h3.9c-0.1-0.5-0.3-0.9-0.6-1.2 C183,31.4,182.6,31.3,182.1,31.3z M197.3,32.3c0.5,0.2,0.9,0.4,1.2,0.8c0.3,0.4,0.4,0.9,0.4,1.4c0,0.8-0.3,1.4-0.9,1.8 c-0.6,0.4-1.5,0.6-2.7,0.6h-4.5v-9.1h4.3c1.1,0,1.9,0.2,2.5,0.6s0.9,1,0.9,1.7c0,0.5-0.1,0.8-0.3,1.2 C198,31.8,197.7,32.1,197.3,32.3z M192.6,29.2v2.5h2.4c0.6,0,1-0.1,1.4-0.3c0.3-0.2,0.5-0.5,0.5-0.9s-0.2-0.7-0.5-0.9 c-0.3-0.2-0.8-0.3-1.4-0.3h-2.4V29.2z M195.3,35.7c1.3,0,2-0.4,2-1.3s-0.7-1.3-2-1.3h-2.7v2.6H195.3z M207.3,30.1V37h-1.5v-0.9 c-0.3,0.3-0.6,0.6-1,0.7c-0.4,0.2-0.8,0.2-1.3,0.2c-0.9,0-1.7-0.3-2.2-0.8s-0.8-1.3-0.8-2.3v-4h1.6v3.7c0,0.6,0.1,1.1,0.4,1.4 c0.3,0.3,0.7,0.5,1.2,0.5c0.6,0,1-0.2,1.4-0.5c0.3-0.4,0.5-0.9,0.5-1.6v-3.5h1.7V30.1z M211.6,37.1c-0.6,0-1.1-0.1-1.7-0.2 c-0.5-0.1-1-0.3-1.3-0.6l0.6-1.2c0.3,0.2,0.7,0.4,1.1,0.5c0.4,0.1,0.9,0.2,1.3,0.2c1,0,1.5-0.3,1.5-0.8c0-0.2-0.1-0.4-0.4-0.5 c-0.2-0.1-0.6-0.2-1.2-0.3c-0.6-0.1-1-0.2-1.4-0.3s-0.7-0.3-0.9-0.6c-0.3-0.3-0.4-0.7-0.4-1.2c0-0.7,0.3-1.2,0.8-1.6 c0.6-0.4,1.3-0.6,2.2-0.6c0.5,0,1,0.1,1.4,0.2c0.5,0.1,0.9,0.2,1.2,0.4l-0.6,1.2c-0.6-0.3-1.3-0.5-2-0.5c-0.5,0-0.8,0.1-1.1,0.2 c-0.2,0.1-0.4,0.3-0.4,0.6c0,0.3,0.1,0.4,0.4,0.6c0.3,0.1,0.7,0.2,1.2,0.3c0.6,0.1,1,0.2,1.4,0.3s0.7,0.3,0.9,0.6 c0.3,0.3,0.4,0.7,0.4,1.1c0,0.7-0.3,1.2-0.8,1.6C213.4,36.9,212.6,37.1,211.6,37.1z M216.2,30.1h1.6V37h-1.6V30.1z M217,28.9 c-0.3,0-0.5-0.1-0.7-0.3c-0.2-0.2-0.3-0.4-0.3-0.7s0.1-0.5,0.3-0.7s0.4-0.3,0.7-0.3s0.5,0.1,0.7,0.3c0.2,0.2,0.3,0.4,0.3,0.7 c0,0.3-0.1,0.5-0.3,0.7C217.5,28.8,217.3,28.9,217,28.9z M223.9,30c0.9,0,1.6,0.3,2.1,0.8s0.8,1.3,0.8,2.3v4h-1.6v-3.8 c0-0.6-0.1-1.1-0.4-1.4c-0.3-0.3-0.7-0.5-1.2-0.5c-0.6,0-1.1,0.2-1.4,0.5c-0.3,0.4-0.5,0.9-0.5,1.5V37h-1.6v-6.9h1.5V31 c0.3-0.3,0.6-0.6,1-0.7C222.9,30.1,223.4,30,223.9,30z M235.4,33.6c0,0.1,0,0.3,0,0.5H230c0.1,0.5,0.3,0.9,0.7,1.2s0.9,0.4,1.5,0.4 c0.8,0,1.4-0.3,1.9-0.8l0.9,1c-0.3,0.4-0.7,0.7-1.2,0.8c-0.5,0.2-1,0.3-1.6,0.3c-0.8,0-1.4-0.2-2-0.5s-1-0.7-1.4-1.3 c-0.3-0.5-0.5-1.2-0.5-1.8c0-0.7,0.2-1.3,0.5-1.8s0.7-1,1.3-1.3c0.5-0.3,1.2-0.5,1.8-0.5c0.7,0,1.3,0.2,1.8,0.5s1,0.7,1.2,1.3 C235.3,32.2,235.4,32.9,235.4,33.6z M231.9,31.3c-0.5,0-1,0.2-1.3,0.5c-0.4,0.3-0.6,0.7-0.7,1.2h3.9c-0.1-0.5-0.3-0.9-0.6-1.2 C232.9,31.4,232.4,31.3,231.9,31.3z M239.1,37.1c-0.6,0-1.1-0.1-1.7-0.2c-0.5-0.1-1-0.3-1.3-0.6l0.6-1.2c0.3,0.2,0.7,0.4,1.1,0.5 c0.4,0.1,0.9,0.2,1.3,0.2c1,0,1.5-0.3,1.5-0.8c0-0.2-0.1-0.4-0.4-0.5c-0.2-0.1-0.6-0.2-1.2-0.3c-0.6-0.1-1-0.2-1.4-0.3 s-0.7-0.3-0.9-0.6c-0.3-0.3-0.4-0.7-0.4-1.2c0-0.7,0.3-1.2,0.8-1.6c0.6-0.4,1.3-0.6,2.2-0.6c0.5,0,1,0.1,1.4,0.2 c0.5,0.1,0.9,0.2,1.2,0.4l-0.6,1.2c-0.6-0.3-1.3-0.5-2-0.5c-0.5,0-0.8,0.1-1.1,0.2c-0.2,0.1-0.4,0.3-0.4,0.6c0,0.3,0.1,0.4,0.4,0.6 c0.3,0.1,0.7,0.2,1.2,0.3c0.6,0.1,1,0.2,1.4,0.3s0.7,0.3,0.9,0.6c0.3,0.3,0.4,0.7,0.4,1.1c0,0.7-0.3,1.2-0.8,1.6 C240.9,36.9,240.1,37.1,239.1,37.1z M245.8,37.1c-0.6,0-1.1-0.1-1.7-0.2c-0.5-0.1-1-0.3-1.3-0.6l0.6-1.2c0.3,0.2,0.7,0.4,1.1,0.5 c0.4,0.1,0.9,0.2,1.3,0.2c1,0,1.5-0.3,1.5-0.8c0-0.2-0.1-0.4-0.4-0.5c-0.2-0.1-0.6-0.2-1.2-0.3c-0.6-0.1-1-0.2-1.4-0.3 s-0.7-0.3-0.9-0.6c-0.3-0.3-0.4-0.7-0.4-1.2c0-0.7,0.3-1.2,0.8-1.6c0.6-0.4,1.3-0.6,2.2-0.6c0.5,0,1,0.1,1.4,0.2 c0.5,0.1,0.9,0.2,1.2,0.4l-0.6,1.2c-0.6-0.3-1.3-0.5-2-0.5c-0.5,0-0.8,0.1-1.1,0.2c-0.2,0.1-0.4,0.3-0.4,0.6c0,0.3,0.1,0.4,0.4,0.6 c0.3,0.1,0.7,0.2,1.2,0.3c0.6,0.1,1,0.2,1.4,0.3s0.7,0.3,0.9,0.6c0.3,0.3,0.4,0.7,0.4,1.1c0,0.7-0.3,1.2-0.8,1.6 C247.5,36.9,246.8,37.1,245.8,37.1z"></path><circle class="st2" cx="174" cy="139" r="62"></circle><path d="M151.4,130.3c0.5,0.2,0.9,0.4,1.2,0.8c0.3,0.4,0.4,0.9,0.4,1.4c0,0.8-0.3,1.4-0.9,1.8c-0.6,0.4-1.5,0.6-2.7,0.6h-4.7v-9.1 h4.4c1.1,0,2,0.2,2.5,0.6c0.6,0.4,0.9,1,0.9,1.7c0,0.4-0.1,0.8-0.3,1.2C152.1,129.8,151.8,130.1,151.4,130.3z M146.8,127.5v2.1h2.1 c0.5,0,0.9-0.1,1.2-0.3s0.4-0.5,0.4-0.8s-0.1-0.6-0.4-0.8c-0.3-0.2-0.7-0.3-1.2-0.3h-2.1V127.5z M149.2,133.4c0.6,0,1-0.1,1.2-0.3 c0.3-0.2,0.4-0.5,0.4-0.8c0-0.8-0.6-1.1-1.7-1.1h-2.5v2.2L149.2,133.4L149.2,133.4z M161.5,128v7h-1.9v-0.8c-0.3,0.3-0.6,0.5-1,0.7 s-0.8,0.2-1.2,0.2c-0.9,0-1.6-0.3-2.2-0.8c-0.5-0.5-0.8-1.3-0.8-2.4v-4h2v3.7c0,1.1,0.5,1.7,1.4,1.7c0.5,0,0.9-0.2,1.2-0.5 s0.4-0.8,0.4-1.4V128H161.5z M165.8,135.1c-0.6,0-1.1-0.1-1.7-0.2c-0.6-0.1-1-0.3-1.3-0.5l0.7-1.5c0.3,0.2,0.7,0.4,1.1,0.5 c0.4,0.1,0.9,0.2,1.3,0.2c0.9,0,1.3-0.2,1.3-0.6c0-0.2-0.1-0.3-0.4-0.4c-0.2-0.1-0.6-0.2-1.1-0.2c-0.6-0.1-1-0.2-1.4-0.3 s-0.7-0.3-1-0.6s-0.4-0.7-0.4-1.2c0-0.4,0.1-0.8,0.4-1.2c0.3-0.3,0.6-0.6,1.1-0.8s1.1-0.3,1.7-0.3c0.5,0,1,0.1,1.5,0.2 c0.5,0.1,0.9,0.3,1.2,0.4l-0.7,1.4c-0.6-0.3-1.3-0.5-2-0.5c-0.4,0-0.8,0.1-1,0.2c-0.2,0.1-0.3,0.3-0.3,0.5s0.1,0.4,0.4,0.5 c0.2,0.1,0.6,0.2,1.1,0.2c0.6,0.1,1,0.2,1.4,0.3s0.7,0.3,0.9,0.6c0.3,0.3,0.4,0.7,0.4,1.2c0,0.4-0.1,0.8-0.4,1.2 c-0.3,0.3-0.6,0.6-1.1,0.8C167,135,166.5,135.1,165.8,135.1z M170.3,128h2v7h-2V128z M171.3,127c-0.4,0-0.7-0.1-0.9-0.3 c-0.2-0.2-0.4-0.5-0.4-0.8s0.1-0.6,0.4-0.8c0.2-0.2,0.5-0.3,0.9-0.3s0.7,0.1,0.9,0.3s0.4,0.5,0.4,0.8s-0.1,0.6-0.4,0.8 C172,126.9,171.7,127,171.3,127z M178.5,127.9c0.9,0,1.6,0.3,2.1,0.8s0.8,1.3,0.8,2.3v4h-2v-3.7c0-0.6-0.1-1-0.4-1.2 c-0.2-0.3-0.6-0.4-1.1-0.4s-0.9,0.2-1.2,0.5s-0.5,0.8-0.5,1.4v3.5h-2v-7h1.9v0.8c0.3-0.3,0.6-0.5,1-0.7 C177.6,128,178,127.9,178.5,127.9z M190.2,131.5c0,0,0,0.2,0,0.5h-5.3c0.1,0.4,0.3,0.8,0.7,1c0.4,0.3,0.8,0.4,1.3,0.4 c0.4,0,0.7-0.1,1-0.2c0.3-0.1,0.6-0.3,0.8-0.5l1.1,1.2c-0.7,0.8-1.6,1.1-2.9,1.1c-0.8,0-1.5-0.2-2.1-0.5s-1.1-0.7-1.4-1.3 c-0.3-0.5-0.5-1.2-0.5-1.9s0.2-1.3,0.5-1.8c0.3-0.6,0.8-1,1.3-1.3c0.6-0.3,1.2-0.5,1.9-0.5s1.3,0.1,1.9,0.4c0.6,0.3,1,0.7,1.3,1.3 C190,130.2,190.2,130.8,190.2,131.5z M186.5,129.4c-0.5,0-0.8,0.1-1.2,0.4c-0.3,0.3-0.5,0.6-0.6,1.1h3.4c-0.1-0.4-0.3-0.8-0.6-1.1 C187.4,129.6,187,129.4,186.5,129.4z M193.9,135.1c-0.6,0-1.1-0.1-1.7-0.2c-0.6-0.1-1-0.3-1.3-0.5l0.7-1.5c0.3,0.2,0.7,0.4,1.1,0.5 c0.4,0.1,0.9,0.2,1.3,0.2c0.9,0,1.3-0.2,1.3-0.6c0-0.2-0.1-0.3-0.4-0.4c-0.2-0.1-0.6-0.2-1.1-0.2c-0.6-0.1-1-0.2-1.4-0.3 s-0.7-0.3-1-0.6s-0.4-0.7-0.4-1.2c0-0.4,0.1-0.8,0.4-1.2c0.3-0.3,0.6-0.6,1.1-0.8s1.1-0.3,1.7-0.3c0.5,0,1,0.1,1.5,0.2 c0.5,0.1,0.9,0.3,1.2,0.4l-0.7,1.4c-0.6-0.3-1.3-0.5-2-0.5c-0.4,0-0.8,0.1-1,0.2c-0.2,0.1-0.3,0.3-0.3,0.5s0.1,0.4,0.4,0.5 c0.2,0.1,0.6,0.2,1.1,0.2c0.6,0.1,1,0.2,1.4,0.3s0.7,0.3,0.9,0.6c0.3,0.3,0.4,0.7,0.4,1.2c0,0.4-0.1,0.8-0.4,1.2 c-0.3,0.3-0.6,0.6-1.1,0.8C195.1,135,194.5,135.1,193.9,135.1z M200.8,135.1c-0.6,0-1.1-0.1-1.7-0.2c-0.6-0.1-1-0.3-1.3-0.5l0.7-1.5 c0.3,0.2,0.7,0.4,1.1,0.5c0.4,0.1,0.9,0.2,1.3,0.2c0.9,0,1.3-0.2,1.3-0.6c0-0.2-0.1-0.3-0.4-0.4c-0.2-0.1-0.6-0.2-1.1-0.2 c-0.6-0.1-1-0.2-1.4-0.3s-0.7-0.3-1-0.6s-0.4-0.7-0.4-1.2c0-0.4,0.1-0.8,0.4-1.2c0.3-0.3,0.6-0.6,1.1-0.8s1.1-0.3,1.7-0.3 c0.5,0,1,0.1,1.5,0.2c0.5,0.1,0.9,0.3,1.2,0.4l-0.7,1.4c-0.6-0.3-1.3-0.5-2-0.5c-0.4,0-0.8,0.1-1,0.2c-0.2,0.1-0.3,0.3-0.3,0.5 s0.1,0.4,0.4,0.5c0.2,0.1,0.6,0.2,1.1,0.2c0.6,0.1,1,0.2,1.4,0.3s0.7,0.3,0.9,0.6c0.3,0.3,0.4,0.7,0.4,1.2c0,0.4-0.1,0.8-0.4,1.2 c-0.3,0.3-0.6,0.6-1.1,0.8C202,135,201.4,135.1,200.8,135.1z M133.9,147.3c0.5,0.2,0.9,0.4,1.2,0.8c0.3,0.4,0.4,0.9,0.4,1.4 c0,0.8-0.3,1.4-0.9,1.8c-0.6,0.4-1.5,0.6-2.7,0.6h-4.7v-9.1h4.4c1.1,0,2,0.2,2.5,0.6c0.6,0.4,0.9,1,0.9,1.7c0,0.4-0.1,0.8-0.3,1.2 C134.6,146.8,134.3,147.1,133.9,147.3z M129.3,144.5v2.1h2.1c0.5,0,0.9-0.1,1.2-0.3s0.4-0.5,0.4-0.8s-0.1-0.6-0.4-0.8 c-0.3-0.2-0.7-0.3-1.2-0.3h-2.1V144.5z M131.8,150.4c0.6,0,1-0.1,1.2-0.3c0.3-0.2,0.4-0.5,0.4-0.8c0-0.8-0.6-1.1-1.7-1.1h-2.5v2.2 L131.8,150.4L131.8,150.4z M139,145.9c0.2-0.3,0.6-0.6,1-0.8s0.9-0.3,1.4-0.3v1.9c-0.2,0-0.4,0-0.5,0c-0.6,0-1,0.2-1.4,0.5 c-0.3,0.3-0.5,0.8-0.5,1.5v3.3h-2v-7h1.9v0.9H139z M149.4,148.5c0,0,0,0.2,0,0.5H144c0.1,0.4,0.3,0.8,0.7,1c0.4,0.3,0.8,0.4,1.3,0.4 c0.4,0,0.7-0.1,1-0.2c0.3-0.1,0.6-0.3,0.8-0.5l1.1,1.2c-0.7,0.8-1.6,1.1-2.9,1.1c-0.8,0-1.5-0.2-2.1-0.5s-1.1-0.7-1.4-1.3 c-0.3-0.5-0.5-1.2-0.5-1.9s0.2-1.3,0.5-1.8c0.3-0.6,0.8-1,1.3-1.3c0.6-0.3,1.2-0.5,1.9-0.5s1.3,0.1,1.9,0.4c0.6,0.3,1,0.7,1.3,1.3 C149.2,147.2,149.4,147.8,149.4,148.5z M145.7,146.4c-0.5,0-0.8,0.1-1.2,0.4c-0.3,0.3-0.5,0.6-0.6,1.1h3.4c-0.1-0.4-0.3-0.8-0.6-1.1 C146.6,146.6,146.2,146.4,145.7,146.4z M153.3,144.9c1.1,0,1.9,0.3,2.5,0.8s0.9,1.3,0.9,2.3v4h-1.9v-0.9c-0.4,0.7-1.1,1-2.1,1 c-0.5,0-1-0.1-1.4-0.3s-0.7-0.4-0.9-0.8c-0.2-0.3-0.3-0.7-0.3-1.1c0-0.6,0.2-1.2,0.7-1.5c0.5-0.4,1.3-0.6,2.3-0.6h1.6 c0-0.4-0.1-0.8-0.4-1c-0.3-0.2-0.7-0.4-1.2-0.4c-0.4,0-0.7,0.1-1.1,0.2c-0.4,0.1-0.7,0.3-0.9,0.5l-0.7-1.4c0.4-0.3,0.8-0.5,1.4-0.6 C152.2,145,152.8,144.9,153.3,144.9z M153.2,150.7c0.3,0,0.7-0.1,0.9-0.2c0.3-0.2,0.5-0.4,0.6-0.7v-0.7h-1.4c-0.8,0-1.2,0.3-1.2,0.8 c0,0.3,0.1,0.5,0.3,0.6C152.6,150.7,152.8,150.7,153.2,150.7z M161.5,149.3l-1,1v1.8h-2v-9.6h2v5.5l3-2.8h2.4l-2.9,3l3.2,4h-2.5 L161.5,149.3z M171.6,151.7c-0.2,0.1-0.4,0.3-0.7,0.3c-0.3,0.1-0.6,0.1-0.9,0.1c-0.8,0-1.5-0.2-1.9-0.6c-0.4-0.4-0.7-1-0.7-1.9v-2.9 h-1.1v-1.6h1.1v-1.7h2v1.7h1.7v1.6h-1.7v2.8c0,0.3,0.1,0.5,0.2,0.7c0.2,0.2,0.4,0.2,0.7,0.2s0.6-0.1,0.8-0.3L171.6,151.7z  M177,144.9c0.9,0,1.6,0.3,2.1,0.8s0.8,1.3,0.8,2.3v4h-2v-3.7c0-0.6-0.1-1-0.4-1.2c-0.2-0.3-0.6-0.4-1.1-0.4s-0.9,0.2-1.2,0.5 s-0.5,0.8-0.5,1.4v3.5h-2v-9.6h2v3.4c0.3-0.3,0.6-0.5,1-0.6C176.2,145,176.6,144.9,177,144.9z M183.7,145.9c0.2-0.3,0.6-0.6,1-0.8 s0.9-0.3,1.4-0.3v1.9c-0.2,0-0.4,0-0.5,0c-0.6,0-1,0.2-1.4,0.5c-0.3,0.3-0.5,0.8-0.5,1.5v3.3h-2v-7h1.9v0.9H183.7z M190.6,152.1 c-0.7,0-1.4-0.2-2-0.5s-1-0.7-1.4-1.3c-0.3-0.5-0.5-1.2-0.5-1.9s0.2-1.3,0.5-1.9c0.3-0.5,0.8-1,1.4-1.3c0.6-0.3,1.3-0.5,2-0.5 s1.4,0.2,2,0.5s1,0.7,1.4,1.3c0.3,0.5,0.5,1.2,0.5,1.9s-0.2,1.3-0.5,1.9c-0.3,0.5-0.8,1-1.4,1.3C192,152,191.3,152.1,190.6,152.1z  M190.6,150.4c0.5,0,0.9-0.2,1.3-0.5c0.3-0.4,0.5-0.8,0.5-1.4c0-0.6-0.2-1.1-0.5-1.4c-0.3-0.4-0.8-0.5-1.3-0.5s-0.9,0.2-1.3,0.5 c-0.3,0.3-0.5,0.8-0.5,1.4c0,0.6,0.2,1.1,0.5,1.4C189.6,150.3,190.1,150.4,190.6,150.4z M202.8,145v7h-1.9v-0.8 c-0.3,0.3-0.6,0.5-1,0.7s-0.8,0.2-1.2,0.2c-0.9,0-1.6-0.3-2.2-0.8c-0.5-0.5-0.8-1.3-0.8-2.4v-4h2v3.7c0,1.1,0.5,1.7,1.4,1.7 c0.5,0,0.9-0.2,1.2-0.5s0.4-0.8,0.4-1.4V145H202.8z M211.9,145v5.8c0,1.3-0.3,2.2-1,2.9c-0.7,0.6-1.6,0.9-2.9,0.9 c-0.7,0-1.3-0.1-1.9-0.2c-0.6-0.2-1.1-0.4-1.5-0.7l0.8-1.5c0.3,0.2,0.7,0.4,1.1,0.6c0.4,0.1,0.9,0.2,1.4,0.2c0.7,0,1.2-0.2,1.5-0.5 s0.5-0.8,0.5-1.4v-0.3c-0.5,0.6-1.3,0.9-2.2,0.9c-0.6,0-1.2-0.1-1.8-0.4c-0.5-0.3-0.9-0.7-1.3-1.2s-0.5-1.1-0.5-1.8s0.2-1.3,0.5-1.8 s0.7-0.9,1.3-1.2c0.5-0.3,1.1-0.4,1.8-0.4c1,0,1.8,0.3,2.3,1V145H211.9z M208.1,150c0.5,0,1-0.2,1.3-0.5s0.5-0.7,0.5-1.2 s-0.2-0.9-0.5-1.2s-0.8-0.5-1.3-0.5s-1,0.2-1.3,0.5s-0.5,0.7-0.5,1.2s0.2,0.9,0.5,1.2S207.5,150,208.1,150z M218,144.9 c0.9,0,1.6,0.3,2.1,0.8s0.8,1.3,0.8,2.3v4h-2v-3.7c0-0.6-0.1-1-0.4-1.2c-0.2-0.3-0.6-0.4-1.1-0.4s-0.9,0.2-1.2,0.5s-0.5,0.8-0.5,1.4 v3.5h-2v-9.6h2v3.4c0.3-0.3,0.6-0.5,1-0.6C217.2,145,217.6,144.9,218,144.9z"></path><path class="st1" d="M103.2,160.4l-21,12"></path><path class="st1" d="M244.2,160.4l21,12"></path><path class="st1" d="M174,49v17"></path></svg>