<svg xmlns="http://www.w3.org/2000/svg" xmlns:xlink="http://www.w3.org/1999/xlink" id="Layer_1" x="0px" y="0px" viewBox="0 0 351 266" style="enable-background:new 0 0 351 266;" xml:space="preserve"><style type="text/css">	.st0{fill:#131313;}	.st1{clip-path:url(#SVGID_00000003094788449340224710000012198923135047546298_);}	.st2{fill:#FFFFFF;}	.st3{fill:#D7C49A;}	.st4{fill:none;stroke:#D7C49A;stroke-width:2;stroke-miterlimit:10;}</style><path class="st0" d="M2.5,102.4h5.7c1.4,0,2.6,0.3,3.6,0.8c1.1,0.5,1.9,1.2,2.4,2.2c0.6,0.9,0.9,2.1,0.9,3.3c0,1.3-0.3,2.4-0.9,3.3 c-0.6,0.9-1.4,1.7-2.4,2.2c-1,0.5-2.2,0.8-3.6,0.8H2.5V102.4z M8.1,112.6c1.3,0,2.3-0.3,3-1c0.8-0.7,1.1-1.7,1.1-2.9 c0-1.2-0.4-2.1-1.1-2.8c-0.7-0.7-1.7-1.1-3-1.1H5.4v7.8H8.1z M23.5,115.2c-1.3,0-2.5-0.3-3.5-0.8c-1-0.6-1.9-1.3-2.5-2.3 c-0.6-1-0.9-2.1-0.9-3.3s0.3-2.3,0.9-3.3c0.6-1,1.4-1.8,2.5-2.3c1.1-0.6,2.2-0.8,3.5-0.8s2.5,0.3,3.5,0.8c1,0.6,1.9,1.3,2.5,2.3 c0.6,1,0.9,2.1,0.9,3.3s-0.3,2.4-0.9,3.3c-0.6,1-1.4,1.8-2.5,2.3C26,114.9,24.8,115.2,23.5,115.2z M23.5,112.7c0.7,0,1.4-0.2,2-0.5 c0.6-0.3,1.1-0.8,1.4-1.4c0.3-0.6,0.5-1.3,0.5-2.1c0-0.8-0.2-1.5-0.5-2.1c-0.3-0.6-0.8-1.1-1.4-1.4c-0.6-0.3-1.3-0.5-2-0.5 s-1.4,0.2-2,0.5c-0.6,0.3-1.1,0.8-1.4,1.4c-0.3,0.6-0.5,1.3-0.5,2.1c0,0.8,0.2,1.5,0.5,2.1c0.3,0.6,0.8,1.1,1.4,1.4 C22.1,112.6,22.7,112.7,23.5,112.7z M44.1,102.4V115h-2.4l-6.3-7.7v7.7h-2.9v-12.6H35l6.3,7.7v-7.7H44.1z M48,101.5 c0.5,0,0.9,0.2,1.2,0.5c0.3,0.3,0.5,0.7,0.5,1.2c0,0.2,0,0.5-0.1,0.7c-0.1,0.2-0.2,0.6-0.4,1.1l-1,2.6h-1.8l0.8-2.8 c-0.3-0.1-0.5-0.3-0.7-0.6s-0.3-0.6-0.3-1c0-0.5,0.2-0.9,0.5-1.2C47,101.7,47.5,101.5,48,101.5z M54.9,104.8h-4v-2.4h11v2.4h-4V115 h-2.9V104.8z M4.8,135.2c-0.9,0-1.6-0.2-2.4-0.5c-0.7-0.3-1.3-0.8-1.7-1.4l1.6-1.9c0.7,0.9,1.5,1.4,2.3,1.4c1.2,0,1.8-0.7,1.8-2.1 v-6H2v-2.3h7.3v8.2c0,1.5-0.4,2.7-1.2,3.5C7.4,134.8,6.3,135.2,4.8,135.2z M18.3,135.2c-1.3,0-2.5-0.3-3.5-0.8 c-1-0.6-1.9-1.3-2.5-2.3c-0.6-1-0.9-2.1-0.9-3.3c0-1.2,0.3-2.3,0.9-3.3c0.6-1,1.4-1.8,2.5-2.3c1.1-0.6,2.2-0.8,3.5-0.8 c1.3,0,2.5,0.3,3.5,0.8c1,0.6,1.9,1.3,2.5,2.3c0.6,1,0.9,2.1,0.9,3.3c0,1.2-0.3,2.4-0.9,3.3c-0.6,1-1.4,1.8-2.5,2.3 C20.8,134.9,19.6,135.2,18.3,135.2z M18.3,132.7c0.7,0,1.4-0.2,2-0.5c0.6-0.3,1.1-0.8,1.4-1.4c0.3-0.6,0.5-1.3,0.5-2.1 s-0.2-1.5-0.5-2.1c-0.3-0.6-0.8-1.1-1.4-1.4c-0.6-0.3-1.3-0.5-2-0.5c-0.7,0-1.4,0.2-2,0.5c-0.6,0.3-1.1,0.8-1.4,1.4 c-0.3,0.6-0.5,1.3-0.5,2.1s0.2,1.5,0.5,2.1c0.3,0.6,0.8,1.1,1.4,1.4C16.9,132.6,17.6,132.7,18.3,132.7z M27.4,122.4h2.9V135h-2.9 V122.4z M44.9,122.4V135h-2.4l-6.3-7.7v7.7h-2.9v-12.6h2.4l6.3,7.7v-7.7H44.9z M53,122.4h2.9V135H53V122.4z M61.8,124.7v3.3h5.8v2.3 h-5.8v4.6h-2.9v-12.6h9.5v2.3H61.8z"></path><path class="st0" d="M178.1,9.8V13h-1.7V9.8l-3.6-5.9h1.8l2.7,4.4l2.7-4.4h1.7L178.1,9.8z M185,13.1c-0.7,0-1.3-0.2-1.9-0.5 c-0.6-0.3-1-0.7-1.3-1.3c-0.3-0.5-0.5-1.2-0.5-1.8c0-0.7,0.2-1.3,0.5-1.8c0.3-0.5,0.8-1,1.3-1.3c0.6-0.3,1.2-0.5,1.9-0.5 c0.7,0,1.3,0.2,1.9,0.5c0.6,0.3,1,0.7,1.3,1.3c0.3,0.5,0.5,1.1,0.5,1.8c0,0.7-0.2,1.3-0.5,1.8c-0.3,0.5-0.7,1-1.3,1.3 C186.4,12.9,185.7,13.1,185,13.1z M185,11.7c0.6,0,1.1-0.2,1.5-0.6s0.6-0.9,0.6-1.6c0-0.7-0.2-1.2-0.6-1.6s-0.9-0.6-1.5-0.6 c-0.6,0-1.1,0.2-1.5,0.6c-0.4,0.4-0.6,0.9-0.6,1.6c0,0.6,0.2,1.2,0.6,1.6C183.9,11.5,184.4,11.7,185,11.7z M197,6.1V13h-1.5v-0.9 c-0.3,0.3-0.6,0.6-1,0.7c-0.4,0.2-0.8,0.2-1.3,0.2c-0.9,0-1.7-0.3-2.2-0.8c-0.5-0.5-0.8-1.3-0.8-2.3v-4h1.6v3.7 c0,0.6,0.1,1.1,0.4,1.4c0.3,0.3,0.7,0.5,1.2,0.5c0.6,0,1-0.2,1.4-0.5c0.3-0.4,0.5-0.9,0.5-1.6V6.1H197z M208.8,10.9h-4.6l-0.9,2.1 h-1.7l4.1-9.1h1.7l4.1,9.1h-1.8L208.8,10.9z M208.2,9.6l-1.7-4l-1.7,4H208.2z M214,7.1c0.5-0.7,1.3-1.1,2.5-1.1v1.5 c-0.1,0-0.3,0-0.4,0c-0.6,0-1.1,0.2-1.5,0.6c-0.4,0.4-0.5,0.9-0.5,1.6V13h-1.6V6.1h1.5V7.1z M224.3,9.6c0,0.1,0,0.3,0,0.5h-5.4 c0.1,0.5,0.3,0.9,0.7,1.2c0.4,0.3,0.9,0.4,1.5,0.4c0.8,0,1.4-0.3,1.9-0.8l0.9,1c-0.3,0.4-0.7,0.7-1.2,0.8c-0.5,0.2-1,0.3-1.6,0.3 c-0.8,0-1.4-0.2-2-0.5c-0.6-0.3-1-0.7-1.4-1.3c-0.3-0.5-0.5-1.2-0.5-1.8c0-0.7,0.2-1.3,0.5-1.8c0.3-0.5,0.7-1,1.3-1.3 s1.2-0.5,1.8-0.5c0.7,0,1.3,0.2,1.8,0.5c0.5,0.3,1,0.7,1.2,1.3C224.1,8.2,224.3,8.9,224.3,9.6z M220.8,7.3c-0.5,0-1,0.2-1.3,0.5 c-0.4,0.3-0.6,0.7-0.7,1.2h3.9c-0.1-0.5-0.3-0.9-0.6-1.2C221.8,7.4,221.3,7.3,220.8,7.3z M237.7,3.9V13h-1.4l-5-6.2V13h-1.7V3.9h1.4 l5,6.2V3.9H237.7z M243.1,13.1c-0.7,0-1.3-0.2-1.9-0.5c-0.6-0.3-1-0.7-1.3-1.3c-0.3-0.5-0.5-1.2-0.5-1.8c0-0.7,0.2-1.3,0.5-1.8 c0.3-0.5,0.8-1,1.3-1.3c0.6-0.3,1.2-0.5,1.9-0.5c0.7,0,1.3,0.2,1.9,0.5s1,0.7,1.3,1.3c0.3,0.5,0.5,1.1,0.5,1.8 c0,0.7-0.2,1.3-0.5,1.8c-0.3,0.5-0.8,1-1.3,1.3S243.8,13.1,243.1,13.1z M243.1,11.7c0.6,0,1.1-0.2,1.5-0.6s0.6-0.9,0.6-1.6 c0-0.7-0.2-1.2-0.6-1.6s-0.9-0.6-1.5-0.6c-0.6,0-1.1,0.2-1.5,0.6c-0.4,0.4-0.6,0.9-0.6,1.6c0,0.6,0.2,1.2,0.6,1.6 C242,11.5,242.5,11.7,243.1,11.7z M252.5,12.6c-0.2,0.2-0.4,0.3-0.7,0.4c-0.3,0.1-0.6,0.1-0.9,0.1c-0.8,0-1.4-0.2-1.8-0.6 s-0.6-1-0.6-1.7V7.4h-1.1V6.1h1.1V4.5h1.6v1.6h1.9v1.3h-1.9v3.3c0,0.3,0.1,0.6,0.2,0.8c0.2,0.2,0.4,0.3,0.7,0.3 c0.4,0,0.7-0.1,0.9-0.3L252.5,12.6z M263.5,10.9H259l-0.9,2.1h-1.7l4.1-9.1h1.7l4.1,9.1h-1.8L263.5,10.9z M263,9.6l-1.7-4l-1.7,4 H263z M277.4,8.3c0.5,0.2,0.9,0.4,1.2,0.8c0.3,0.4,0.4,0.9,0.4,1.4c0,0.8-0.3,1.4-0.9,1.8c-0.6,0.4-1.5,0.6-2.7,0.6h-4.5V3.9h4.3 c1.1,0,1.9,0.2,2.5,0.6c0.6,0.4,0.9,1,0.9,1.7c0,0.5-0.1,0.8-0.3,1.2C278,7.8,277.8,8.1,277.4,8.3z M272.6,5.2v2.5h2.4 c0.6,0,1-0.1,1.4-0.3c0.3-0.2,0.5-0.5,0.5-0.9c0-0.4-0.2-0.7-0.5-0.9c-0.3-0.2-0.8-0.3-1.4-0.3H272.6z M275.4,11.7 c1.3,0,2-0.4,2-1.3c0-0.9-0.7-1.3-2-1.3h-2.7v2.6H275.4z M287.4,6.1V13h-1.5v-0.9c-0.3,0.3-0.6,0.6-1,0.7c-0.4,0.2-0.8,0.2-1.3,0.2 c-0.9,0-1.7-0.3-2.2-0.8c-0.5-0.5-0.8-1.3-0.8-2.3v-4h1.6v3.7c0,0.6,0.1,1.1,0.4,1.4c0.3,0.3,0.7,0.5,1.2,0.5c0.6,0,1-0.2,1.4-0.5 c0.3-0.4,0.5-0.9,0.5-1.6V6.1H287.4z M291.7,13.1c-0.6,0-1.1-0.1-1.7-0.2c-0.5-0.1-1-0.3-1.3-0.6l0.6-1.2c0.3,0.2,0.7,0.4,1.1,0.5 c0.4,0.1,0.9,0.2,1.3,0.2c1,0,1.5-0.3,1.5-0.8c0-0.2-0.1-0.4-0.4-0.5c-0.2-0.1-0.6-0.2-1.2-0.3c-0.6-0.1-1-0.2-1.4-0.3 c-0.4-0.1-0.7-0.3-0.9-0.6c-0.3-0.3-0.4-0.7-0.4-1.2c0-0.7,0.3-1.2,0.8-1.6c0.6-0.4,1.3-0.6,2.2-0.6c0.5,0,1,0.1,1.4,0.2 c0.5,0.1,0.9,0.2,1.2,0.4L294,7.8c-0.6-0.3-1.3-0.5-2-0.5c-0.5,0-0.8,0.1-1.1,0.2c-0.2,0.1-0.4,0.3-0.4,0.6c0,0.3,0.1,0.4,0.4,0.6 c0.3,0.1,0.7,0.2,1.2,0.3c0.6,0.1,1,0.2,1.4,0.3c0.4,0.1,0.7,0.3,0.9,0.6c0.3,0.3,0.4,0.6,0.4,1.1c0,0.6-0.3,1.2-0.8,1.6 C293.4,12.9,292.6,13.1,291.7,13.1z M296.2,6.1h1.6V13h-1.6V6.1z M297,4.9c-0.3,0-0.5-0.1-0.7-0.3c-0.2-0.2-0.3-0.4-0.3-0.7 s0.1-0.5,0.3-0.7c0.2-0.2,0.4-0.3,0.7-0.3c0.3,0,0.5,0.1,0.7,0.3c0.2,0.2,0.3,0.4,0.3,0.7c0,0.3-0.1,0.5-0.3,0.7 C297.6,4.8,297.3,4.9,297,4.9z M303.9,6c0.9,0,1.6,0.3,2.1,0.8c0.5,0.5,0.8,1.3,0.8,2.3v4h-1.6V9.2c0-0.6-0.1-1.1-0.4-1.4 c-0.3-0.3-0.7-0.5-1.2-0.5c-0.6,0-1.1,0.2-1.4,0.5c-0.3,0.4-0.5,0.9-0.5,1.5V13H300V6.1h1.5V7c0.3-0.3,0.6-0.6,1-0.7 C302.9,6.1,303.4,6,303.9,6z M315.5,9.6c0,0.1,0,0.3,0,0.5H310c0.1,0.5,0.3,0.9,0.7,1.2c0.4,0.3,0.9,0.4,1.5,0.4 c0.8,0,1.4-0.3,1.9-0.8l0.9,1c-0.3,0.4-0.7,0.7-1.2,0.8c-0.5,0.2-1,0.3-1.6,0.3c-0.8,0-1.4-0.2-2-0.5s-1-0.7-1.4-1.3 c-0.3-0.5-0.5-1.2-0.5-1.8c0-0.7,0.2-1.3,0.5-1.8c0.3-0.5,0.7-1,1.3-1.3c0.5-0.3,1.2-0.5,1.8-0.5c0.7,0,1.3,0.2,1.8,0.5 c0.5,0.3,1,0.7,1.2,1.3C315.3,8.2,315.5,8.9,315.5,9.6z M312,7.3c-0.5,0-1,0.2-1.3,0.5c-0.4,0.3-0.6,0.7-0.7,1.2h3.9 c-0.1-0.5-0.3-0.9-0.6-1.2C312.9,7.4,312.5,7.3,312,7.3z M319.2,13.1c-0.6,0-1.1-0.1-1.7-0.2c-0.5-0.1-1-0.3-1.3-0.6l0.6-1.2 c0.3,0.2,0.7,0.4,1.1,0.5c0.4,0.1,0.9,0.2,1.3,0.2c1,0,1.5-0.3,1.5-0.8c0-0.2-0.1-0.4-0.4-0.5c-0.2-0.1-0.6-0.2-1.2-0.3 c-0.6-0.1-1-0.2-1.4-0.3c-0.4-0.1-0.7-0.3-0.9-0.6c-0.3-0.3-0.4-0.7-0.4-1.2c0-0.7,0.3-1.2,0.8-1.6c0.6-0.4,1.3-0.6,2.2-0.6 c0.5,0,1,0.1,1.4,0.2c0.5,0.1,0.9,0.2,1.2,0.4l-0.6,1.2c-0.6-0.3-1.3-0.5-2-0.5c-0.5,0-0.8,0.1-1.1,0.2c-0.2,0.1-0.4,0.3-0.4,0.6 c0,0.3,0.1,0.4,0.4,0.6c0.3,0.1,0.7,0.2,1.2,0.3c0.6,0.1,1,0.2,1.4,0.3c0.4,0.1,0.7,0.3,0.9,0.6c0.3,0.3,0.4,0.6,0.4,1.1 c0,0.6-0.3,1.2-0.8,1.6C320.9,12.9,320.1,13.1,319.2,13.1z M325.9,13.1c-0.6,0-1.1-0.1-1.7-0.2c-0.5-0.1-1-0.3-1.3-0.6l0.6-1.2 c0.3,0.2,0.7,0.4,1.1,0.5c0.4,0.1,0.9,0.2,1.3,0.2c1,0,1.5-0.3,1.5-0.8c0-0.2-0.1-0.4-0.4-0.5c-0.2-0.1-0.6-0.2-1.2-0.3 c-0.6-0.1-1-0.2-1.4-0.3c-0.4-0.1-0.7-0.3-0.9-0.6c-0.3-0.3-0.4-0.7-0.4-1.2c0-0.7,0.3-1.2,0.8-1.6c0.6-0.4,1.3-0.6,2.2-0.6 c0.5,0,1,0.1,1.4,0.2c0.5,0.1,0.9,0.2,1.2,0.4l-0.6,1.2c-0.6-0.3-1.3-0.5-2-0.5c-0.5,0-0.8,0.1-1.1,0.2c-0.2,0.1-0.4,0.3-0.4,0.6 c0,0.3,0.1,0.4,0.4,0.6c0.3,0.1,0.7,0.2,1.2,0.3c0.6,0.1,1,0.2,1.4,0.3c0.4,0.1,0.7,0.3,0.9,0.6c0.3,0.3,0.4,0.6,0.4,1.1 c0,0.6-0.3,1.2-0.8,1.6C327.6,12.9,326.8,13.1,325.9,13.1z M178.5,30.1c-0.9,0-1.8-0.2-2.5-0.6c-0.7-0.4-1.3-1-1.8-1.7 c-0.4-0.7-0.6-1.5-0.6-2.4c0-0.9,0.2-1.7,0.6-2.4c0.4-0.7,1-1.3,1.8-1.7c0.7-0.4,1.6-0.6,2.5-0.6c0.9,0,1.8,0.2,2.5,0.6 c0.7,0.4,1.3,1,1.8,1.7c0.4,0.7,0.6,1.5,0.6,2.4c0,0.9-0.2,1.7-0.6,2.4c-0.4,0.7-1,1.3-1.8,1.7C180.2,29.9,179.4,30.1,178.5,30.1z  M178.5,28.6c0.6,0,1.2-0.1,1.6-0.4c0.5-0.3,0.9-0.7,1.1-1.1c0.3-0.5,0.4-1,0.4-1.7c0-0.6-0.1-1.2-0.4-1.6c-0.3-0.5-0.7-0.9-1.1-1.1 c-0.5-0.3-1-0.4-1.6-0.4c-0.6,0-1.2,0.1-1.6,0.4c-0.5,0.3-0.9,0.7-1.1,1.1c-0.3,0.5-0.4,1-0.4,1.6c0,0.6,0.1,1.2,0.4,1.7 c0.3,0.5,0.7,0.9,1.1,1.1C177.3,28.5,177.9,28.6,178.5,28.6z M195.8,23.1l-2.6,6.9h-1.6l-1.8-4.8l-1.8,4.8h-1.6l-2.5-6.9h1.5 l1.8,5.1l1.9-5.1h1.4l1.9,5.1l1.9-5.1H195.8z M200.9,23c0.9,0,1.6,0.3,2.1,0.8c0.5,0.5,0.8,1.3,0.8,2.3v4h-1.6v-3.8 c0-0.6-0.1-1.1-0.4-1.4c-0.3-0.3-0.7-0.5-1.2-0.5c-0.6,0-1.1,0.2-1.4,0.5c-0.3,0.4-0.5,0.9-0.5,1.5V30H197v-6.9h1.5V24 c0.3-0.3,0.6-0.6,1-0.7C199.9,23.1,200.4,23,200.9,23z M212.4,26.6c0,0.1,0,0.3,0,0.5H207c0.1,0.5,0.3,0.9,0.7,1.2 c0.4,0.3,0.9,0.4,1.5,0.4c0.8,0,1.4-0.3,1.9-0.8l0.9,1c-0.3,0.4-0.7,0.7-1.2,0.8c-0.5,0.2-1,0.3-1.6,0.3c-0.8,0-1.4-0.2-2-0.5 c-0.6-0.3-1-0.7-1.4-1.3c-0.3-0.5-0.5-1.2-0.5-1.8c0-0.7,0.2-1.3,0.5-1.8c0.3-0.5,0.7-1,1.3-1.3c0.5-0.3,1.2-0.5,1.8-0.5 c0.7,0,1.3,0.2,1.8,0.5c0.5,0.3,1,0.7,1.2,1.3C212.3,25.2,212.4,25.9,212.4,26.6z M208.9,24.3c-0.5,0-1,0.2-1.3,0.5 c-0.4,0.3-0.6,0.7-0.6,1.2h3.9c-0.1-0.5-0.3-0.9-0.6-1.2C209.9,24.4,209.5,24.3,208.9,24.3z M215.6,24.1c0.5-0.7,1.3-1.1,2.5-1.1 v1.5c-0.1,0-0.3,0-0.4,0c-0.6,0-1.1,0.2-1.5,0.6c-0.4,0.4-0.5,0.9-0.5,1.6V30H214v-6.9h1.5V24.1z"></path><path class="st0" d="M203.1,108.8v3.2h-1.7v-3.2l-3.6-5.9h1.8l2.7,4.4l2.7-4.4h1.7L203.1,108.8z M210,112.1c-0.7,0-1.3-0.2-1.9-0.5 c-0.6-0.3-1-0.7-1.3-1.3c-0.3-0.5-0.5-1.2-0.5-1.8s0.2-1.3,0.5-1.8c0.3-0.5,0.8-1,1.3-1.3c0.6-0.3,1.2-0.5,1.9-0.5 c0.7,0,1.3,0.2,1.9,0.5c0.6,0.3,1,0.7,1.3,1.3c0.3,0.5,0.5,1.1,0.5,1.8s-0.2,1.3-0.5,1.8c-0.3,0.5-0.7,1-1.3,1.3 C211.4,111.9,210.7,112.1,210,112.1z M210,110.7c0.6,0,1.1-0.2,1.5-0.6c0.4-0.4,0.6-0.9,0.6-1.6s-0.2-1.2-0.6-1.6s-0.9-0.6-1.5-0.6 c-0.6,0-1.1,0.2-1.5,0.6c-0.4,0.4-0.6,0.9-0.6,1.6s0.2,1.2,0.6,1.6C208.9,110.5,209.4,110.7,210,110.7z M222,105.1v6.9h-1.5v-0.9 c-0.3,0.3-0.6,0.6-1,0.7c-0.4,0.2-0.8,0.2-1.3,0.2c-0.9,0-1.7-0.3-2.2-0.8c-0.5-0.5-0.8-1.3-0.8-2.3v-4h1.6v3.7 c0,0.6,0.1,1.1,0.4,1.4c0.3,0.3,0.7,0.5,1.2,0.5c0.6,0,1-0.2,1.4-0.5c0.3-0.4,0.5-0.9,0.5-1.6v-3.5H222z M233.8,109.9h-4.6l-0.9,2.1 h-1.7l4.1-9.1h1.7l4.1,9.1h-1.8L233.8,109.9z M233.2,108.6l-1.7-4l-1.7,4H233.2z M239,106.1c0.5-0.7,1.3-1.1,2.5-1.1v1.5 c-0.1,0-0.3,0-0.4,0c-0.6,0-1.1,0.2-1.5,0.6c-0.4,0.4-0.5,0.9-0.5,1.6v3.4h-1.6v-6.9h1.5V106.1z M249.3,108.6c0,0.1,0,0.3,0,0.5 h-5.4c0.1,0.5,0.3,0.9,0.7,1.2c0.4,0.3,0.9,0.4,1.5,0.4c0.8,0,1.4-0.3,1.9-0.8l0.9,1c-0.3,0.4-0.7,0.7-1.2,0.8s-1,0.3-1.6,0.3 c-0.8,0-1.4-0.2-2-0.5c-0.6-0.3-1-0.7-1.4-1.3c-0.3-0.5-0.5-1.2-0.5-1.8c0-0.7,0.2-1.3,0.5-1.8c0.3-0.5,0.7-1,1.3-1.3 c0.5-0.3,1.2-0.5,1.8-0.5c0.7,0,1.3,0.2,1.8,0.5c0.5,0.3,1,0.7,1.2,1.3C249.1,107.2,249.3,107.9,249.3,108.6z M245.8,106.3 c-0.5,0-1,0.2-1.3,0.5c-0.4,0.3-0.6,0.7-0.7,1.2h3.9c-0.1-0.5-0.3-0.9-0.6-1.2C246.8,106.4,246.3,106.3,245.8,106.3z M262.7,102.9 v9.1h-1.4l-5-6.2v6.2h-1.7v-9.1h1.4l5,6.2v-6.2H262.7z M268.1,112.1c-0.7,0-1.3-0.2-1.9-0.5c-0.6-0.3-1-0.7-1.3-1.3 c-0.3-0.5-0.5-1.2-0.5-1.8s0.2-1.3,0.5-1.8c0.3-0.5,0.8-1,1.3-1.3c0.6-0.3,1.2-0.5,1.9-0.5c0.7,0,1.3,0.2,1.9,0.5 c0.6,0.3,1,0.7,1.3,1.3c0.3,0.5,0.5,1.1,0.5,1.8s-0.2,1.3-0.5,1.8c-0.3,0.5-0.8,1-1.3,1.3C269.4,111.9,268.8,112.1,268.1,112.1z  M268.1,110.7c0.6,0,1.1-0.2,1.5-0.6c0.4-0.4,0.6-0.9,0.6-1.6s-0.2-1.2-0.6-1.6c-0.4-0.4-0.9-0.6-1.5-0.6s-1.1,0.2-1.5,0.6 c-0.4,0.4-0.6,0.9-0.6,1.6s0.2,1.2,0.6,1.6C267,110.5,267.5,110.7,268.1,110.7z M277.5,111.6c-0.2,0.2-0.4,0.3-0.7,0.4 c-0.3,0.1-0.6,0.1-0.9,0.1c-0.8,0-1.4-0.2-1.8-0.6c-0.4-0.4-0.6-1-0.6-1.7v-3.3h-1.1v-1.3h1.1v-1.6h1.6v1.6h1.9v1.3h-1.9v3.3 c0,0.3,0.1,0.6,0.2,0.8c0.2,0.2,0.4,0.3,0.7,0.3c0.4,0,0.7-0.1,0.9-0.3L277.5,111.6z M288.5,109.9H284l-0.9,2.1h-1.7l4.1-9.1h1.7 l4.1,9.1h-1.8L288.5,109.9z M288,108.6l-1.7-4l-1.7,4H288z M296.1,105c0.9,0,1.6,0.3,2.1,0.8c0.5,0.5,0.8,1.3,0.8,2.3v4h-1.6v-3.8 c0-0.6-0.1-1.1-0.4-1.4c-0.3-0.3-0.7-0.5-1.2-0.5c-0.6,0-1.1,0.2-1.4,0.5c-0.3,0.4-0.5,0.9-0.5,1.5v3.5h-1.6v-6.9h1.5v0.9 c0.3-0.3,0.6-0.6,1-0.7C295.2,105.1,295.6,105,296.1,105z M310.7,109.9h-4.5l-0.9,2.1h-1.7l4.1-9.1h1.7l4.1,9.1h-1.8L310.7,109.9z  M310.2,108.6l-1.7-4l-1.7,4H310.2z M317.5,112.1c-0.7,0-1.4-0.2-1.9-0.5c-0.6-0.3-1-0.7-1.3-1.3c-0.3-0.5-0.5-1.2-0.5-1.8 s0.2-1.3,0.5-1.8c0.3-0.5,0.8-1,1.3-1.3c0.6-0.3,1.2-0.5,1.9-0.5c0.7,0,1.3,0.1,1.8,0.4c0.5,0.3,0.9,0.7,1.2,1.2l-1.2,0.7 c-0.2-0.3-0.5-0.6-0.8-0.7c-0.3-0.2-0.6-0.2-1-0.2c-0.6,0-1.1,0.2-1.5,0.6c-0.4,0.4-0.6,0.9-0.6,1.6c0,0.7,0.2,1.2,0.6,1.6 c0.4,0.4,0.9,0.6,1.5,0.6c0.4,0,0.7-0.1,1-0.2c0.3-0.2,0.6-0.4,0.8-0.7l1.2,0.7c-0.3,0.5-0.7,0.9-1.2,1.2 C318.8,112,318.2,112.1,317.5,112.1z M326.2,111.6c-0.2,0.2-0.4,0.3-0.7,0.4c-0.3,0.1-0.6,0.1-0.9,0.1c-0.8,0-1.4-0.2-1.8-0.6 c-0.4-0.4-0.6-1-0.6-1.7v-3.3h-1.1v-1.3h1.1v-1.6h1.6v1.6h1.9v1.3h-1.9v3.3c0,0.3,0.1,0.6,0.2,0.8c0.2,0.2,0.4,0.3,0.7,0.3 c0.4,0,0.7-0.1,0.9-0.3L326.2,111.6z M327.5,105.1h1.6v6.9h-1.6V105.1z M328.3,103.9c-0.3,0-0.5-0.1-0.7-0.3 c-0.2-0.2-0.3-0.4-0.3-0.7s0.1-0.5,0.3-0.7c0.2-0.2,0.4-0.3,0.7-0.3c0.3,0,0.5,0.1,0.7,0.3c0.2,0.2,0.3,0.4,0.3,0.7 c0,0.3-0.1,0.5-0.3,0.7C328.9,103.8,328.6,103.9,328.3,103.9z M334.4,112.1c-0.7,0-1.3-0.2-1.9-0.5c-0.6-0.3-1-0.7-1.3-1.3 c-0.3-0.5-0.5-1.2-0.5-1.8s0.2-1.3,0.5-1.8c0.3-0.5,0.8-1,1.3-1.3c0.6-0.3,1.2-0.5,1.9-0.5c0.7,0,1.3,0.2,1.9,0.5 c0.6,0.3,1,0.7,1.3,1.3c0.3,0.5,0.5,1.1,0.5,1.8s-0.2,1.3-0.5,1.8c-0.3,0.5-0.8,1-1.3,1.3S335.1,112.1,334.4,112.1z M334.4,110.7 c0.6,0,1.1-0.2,1.5-0.6c0.4-0.4,0.6-0.9,0.6-1.6s-0.2-1.2-0.6-1.6c-0.4-0.4-0.9-0.6-1.5-0.6c-0.6,0-1.1,0.2-1.5,0.6 c-0.4,0.4-0.6,0.9-0.6,1.6s0.2,1.2,0.6,1.6C333.3,110.5,333.8,110.7,334.4,110.7z M343.6,105c0.9,0,1.6,0.3,2.1,0.8s0.8,1.3,0.8,2.3 v4h-1.6v-3.8c0-0.6-0.1-1.1-0.4-1.4c-0.3-0.3-0.7-0.5-1.2-0.5c-0.6,0-1.1,0.2-1.4,0.5c-0.3,0.4-0.5,0.9-0.5,1.5v3.5h-1.6v-6.9h1.5 v0.9c0.3-0.3,0.6-0.6,1-0.7C342.6,105.1,343.1,105,343.6,105z M201.1,121.3h-3v-1.4h7.7v1.4h-3v7.7h-1.7V121.3z M209.2,122 c1,0,1.8,0.2,2.3,0.7c0.5,0.5,0.8,1.2,0.8,2.2v4.1h-1.5v-0.8c-0.2,0.3-0.5,0.5-0.9,0.7c-0.4,0.2-0.8,0.2-1.3,0.2 c-0.5,0-1-0.1-1.4-0.3c-0.4-0.2-0.7-0.4-0.9-0.7c-0.2-0.3-0.3-0.7-0.3-1.1c0-0.6,0.2-1.1,0.7-1.5c0.5-0.4,1.2-0.6,2.2-0.6h1.8v-0.1 c0-0.5-0.1-0.9-0.4-1.1c-0.3-0.3-0.7-0.4-1.3-0.4c-0.4,0-0.8,0.1-1.2,0.2c-0.4,0.1-0.7,0.3-0.9,0.5l-0.6-1.2 c0.4-0.3,0.8-0.5,1.3-0.6C208.1,122.1,208.6,122,209.2,122z M208.9,127.9c0.4,0,0.8-0.1,1.1-0.3c0.3-0.2,0.5-0.5,0.7-0.8V126H209 c-0.9,0-1.4,0.3-1.4,0.9c0,0.3,0.1,0.5,0.4,0.7C208.2,127.8,208.5,127.9,208.9,127.9z M217.2,126l-1.2,1.1v1.8h-1.6v-9.6h1.6v5.8 l3.4-3.1h1.9l-2.9,2.9l3.2,4h-2L217.2,126z M228.9,125.6c0,0.1,0,0.3,0,0.5h-5.4c0.1,0.5,0.3,0.9,0.7,1.2c0.4,0.3,0.9,0.4,1.5,0.4 c0.8,0,1.4-0.3,1.9-0.8l0.9,1c-0.3,0.4-0.7,0.7-1.2,0.8c-0.5,0.2-1,0.3-1.6,0.3c-0.8,0-1.4-0.2-2-0.5c-0.6-0.3-1-0.7-1.4-1.3 c-0.3-0.5-0.5-1.2-0.5-1.8c0-0.7,0.2-1.3,0.5-1.8c0.3-0.5,0.7-1,1.3-1.3c0.5-0.3,1.2-0.5,1.8-0.5c0.7,0,1.3,0.2,1.8,0.5 c0.5,0.3,1,0.7,1.2,1.3C228.8,124.2,228.9,124.9,228.9,125.6z M225.4,123.3c-0.5,0-1,0.2-1.3,0.5c-0.4,0.3-0.6,0.7-0.6,1.2h3.9 c-0.1-0.5-0.3-0.9-0.6-1.2C226.4,123.4,225.9,123.3,225.4,123.3z M232,123.1c0.5-0.7,1.3-1.1,2.5-1.1v1.5c-0.1,0-0.3,0-0.4,0 c-0.6,0-1.1,0.2-1.5,0.6c-0.4,0.4-0.5,0.9-0.5,1.6v3.4h-1.6v-6.9h1.5V123.1z"></path><path class="st0" d="M162.1,241.8v3.2h-1.7v-3.2l-3.6-5.9h1.8l2.7,4.4l2.7-4.4h1.7L162.1,241.8z M169,245.1c-0.7,0-1.3-0.2-1.9-0.5 c-0.6-0.3-1-0.7-1.3-1.3c-0.3-0.5-0.5-1.2-0.5-1.8c0-0.7,0.2-1.3,0.5-1.8c0.3-0.5,0.8-1,1.3-1.3c0.6-0.3,1.2-0.5,1.9-0.5 c0.7,0,1.3,0.2,1.9,0.5c0.6,0.3,1,0.7,1.3,1.3c0.3,0.5,0.5,1.1,0.5,1.8c0,0.7-0.2,1.3-0.5,1.8c-0.3,0.5-0.7,1-1.3,1.3 C170.4,244.9,169.7,245.1,169,245.1z M169,243.7c0.6,0,1.1-0.2,1.5-0.6s0.6-0.9,0.6-1.6c0-0.7-0.2-1.2-0.6-1.6 c-0.4-0.4-0.9-0.6-1.5-0.6c-0.6,0-1.1,0.2-1.5,0.6c-0.4,0.4-0.6,0.9-0.6,1.6c0,0.6,0.2,1.2,0.6,1.6 C167.9,243.5,168.4,243.7,169,243.7z M181,238.1v6.9h-1.5v-0.9c-0.3,0.3-0.6,0.6-1,0.7c-0.4,0.2-0.8,0.2-1.3,0.2 c-0.9,0-1.7-0.3-2.2-0.8c-0.5-0.5-0.8-1.3-0.8-2.3v-4h1.6v3.7c0,0.6,0.1,1.1,0.4,1.4c0.3,0.3,0.7,0.5,1.2,0.5c0.6,0,1-0.2,1.4-0.5 c0.3-0.4,0.5-0.9,0.5-1.6v-3.5H181z M192.8,242.9h-4.6l-0.9,2.1h-1.7l4.1-9.1h1.7l4.1,9.1h-1.8L192.8,242.9z M192.2,241.6l-1.7-4 l-1.7,4H192.2z M198,239.1c0.5-0.7,1.3-1.1,2.5-1.1v1.5c-0.1,0-0.3,0-0.4,0c-0.6,0-1.1,0.2-1.5,0.6c-0.4,0.4-0.5,0.9-0.5,1.6v3.4 h-1.6v-6.9h1.5V239.1z M208.3,241.6c0,0.1,0,0.3,0,0.5h-5.4c0.1,0.5,0.3,0.9,0.7,1.2c0.4,0.3,0.9,0.4,1.5,0.4c0.8,0,1.4-0.3,1.9-0.8 l0.9,1c-0.3,0.4-0.7,0.7-1.2,0.8c-0.5,0.2-1,0.3-1.6,0.3c-0.8,0-1.4-0.2-2-0.5c-0.6-0.3-1-0.7-1.4-1.3c-0.3-0.5-0.5-1.2-0.5-1.8 c0-0.7,0.2-1.3,0.5-1.8c0.3-0.5,0.7-1,1.3-1.3c0.5-0.3,1.2-0.5,1.8-0.5c0.7,0,1.3,0.2,1.8,0.5c0.5,0.3,1,0.7,1.2,1.3 C208.1,240.2,208.3,240.9,208.3,241.6z M204.8,239.3c-0.5,0-1,0.2-1.3,0.5c-0.4,0.3-0.6,0.7-0.7,1.2h3.9c-0.1-0.5-0.3-0.9-0.6-1.2 C205.8,239.4,205.3,239.3,204.8,239.3z M221.7,235.9v9.1h-1.4l-5-6.2v6.2h-1.7v-9.1h1.4l5,6.2v-6.2H221.7z M227.1,245.1 c-0.7,0-1.3-0.2-1.9-0.5c-0.6-0.3-1-0.7-1.3-1.3c-0.3-0.5-0.5-1.2-0.5-1.8c0-0.7,0.2-1.3,0.5-1.8c0.3-0.5,0.8-1,1.3-1.3 c0.6-0.3,1.2-0.5,1.9-0.5c0.7,0,1.3,0.2,1.9,0.5c0.6,0.3,1,0.7,1.3,1.3c0.3,0.5,0.5,1.1,0.5,1.8c0,0.7-0.2,1.3-0.5,1.8 c-0.3,0.5-0.8,1-1.3,1.3C228.4,244.9,227.8,245.1,227.1,245.1z M227.1,243.7c0.6,0,1.1-0.2,1.5-0.6s0.6-0.9,0.6-1.6 c0-0.7-0.2-1.2-0.6-1.6c-0.4-0.4-0.9-0.6-1.5-0.6c-0.6,0-1.1,0.2-1.5,0.6c-0.4,0.4-0.6,0.9-0.6,1.6c0,0.6,0.2,1.2,0.6,1.6 C226,243.5,226.5,243.7,227.1,243.7z M236.5,244.6c-0.2,0.2-0.4,0.3-0.7,0.4c-0.3,0.1-0.6,0.1-0.9,0.1c-0.8,0-1.4-0.2-1.8-0.6 s-0.6-1-0.6-1.7v-3.3h-1.1v-1.3h1.1v-1.6h1.6v1.6h1.9v1.3h-1.9v3.3c0,0.3,0.1,0.6,0.2,0.8c0.2,0.2,0.4,0.3,0.7,0.3 c0.4,0,0.7-0.1,0.9-0.3L236.5,244.6z M244.4,245.1c-0.7,0-1.4-0.1-2-0.3c-0.6-0.2-1.2-0.5-1.5-0.8l0.6-1.3c0.4,0.3,0.8,0.5,1.4,0.7 c0.5,0.2,1.1,0.3,1.6,0.3c0.7,0,1.2-0.1,1.5-0.3c0.3-0.2,0.5-0.5,0.5-0.9c0-0.3-0.1-0.5-0.3-0.6c-0.2-0.2-0.4-0.3-0.7-0.4 c-0.3-0.1-0.7-0.2-1.2-0.3c-0.7-0.2-1.3-0.3-1.7-0.5c-0.4-0.2-0.8-0.4-1.1-0.8c-0.3-0.4-0.5-0.8-0.5-1.4c0-0.5,0.1-1,0.4-1.4 c0.3-0.4,0.7-0.7,1.2-1c0.6-0.2,1.2-0.4,2-0.4c0.6,0,1.1,0.1,1.6,0.2c0.5,0.1,1,0.3,1.4,0.6l-0.5,1.3c-0.4-0.2-0.8-0.4-1.2-0.5 c-0.4-0.1-0.9-0.2-1.3-0.2c-0.7,0-1.2,0.1-1.5,0.3c-0.3,0.2-0.5,0.5-0.5,0.9c0,0.3,0.1,0.5,0.3,0.6c0.2,0.2,0.4,0.3,0.7,0.4 s0.7,0.2,1.2,0.3c0.7,0.2,1.2,0.3,1.7,0.5c0.4,0.2,0.8,0.4,1.1,0.8c0.3,0.3,0.5,0.8,0.5,1.4c0,0.5-0.1,1-0.4,1.4 c-0.3,0.4-0.7,0.7-1.2,1C245.9,245,245.2,245.1,244.4,245.1z M256.2,241.6c0,0.1,0,0.3,0,0.5h-5.4c0.1,0.5,0.3,0.9,0.7,1.2 c0.4,0.3,0.9,0.4,1.5,0.4c0.8,0,1.4-0.3,1.9-0.8l0.9,1c-0.3,0.4-0.7,0.7-1.2,0.8c-0.5,0.2-1,0.3-1.6,0.3c-0.8,0-1.4-0.2-2-0.5 c-0.6-0.3-1-0.7-1.4-1.3c-0.3-0.5-0.5-1.2-0.5-1.8c0-0.7,0.2-1.3,0.5-1.8c0.3-0.5,0.7-1,1.3-1.3c0.5-0.3,1.2-0.5,1.8-0.5 c0.7,0,1.3,0.2,1.8,0.5c0.5,0.3,1,0.7,1.2,1.3C256,240.2,256.2,240.9,256.2,241.6z M252.7,239.3c-0.5,0-1,0.2-1.3,0.5 c-0.4,0.3-0.6,0.7-0.6,1.2h3.9c-0.1-0.5-0.3-0.9-0.6-1.2C253.6,239.4,253.2,239.3,252.7,239.3z M259.3,239.1 c0.5-0.7,1.3-1.1,2.5-1.1v1.5c-0.1,0-0.3,0-0.4,0c-0.6,0-1.1,0.2-1.5,0.6c-0.4,0.4-0.5,0.9-0.5,1.6v3.4h-1.6v-6.9h1.5V239.1z  M263.1,238.1h1.6v6.9h-1.6V238.1z M263.9,236.9c-0.3,0-0.5-0.1-0.7-0.3c-0.2-0.2-0.3-0.4-0.3-0.7c0-0.3,0.1-0.5,0.3-0.7 c0.2-0.2,0.4-0.3,0.7-0.3c0.3,0,0.5,0.1,0.7,0.3c0.2,0.2,0.3,0.4,0.3,0.7c0,0.3-0.1,0.5-0.3,0.7 C264.5,236.8,264.2,236.9,263.9,236.9z M270,245.1c-0.7,0-1.3-0.2-1.9-0.5c-0.6-0.3-1-0.7-1.3-1.3c-0.3-0.5-0.5-1.2-0.5-1.8 c0-0.7,0.2-1.3,0.5-1.8c0.3-0.5,0.8-1,1.3-1.3c0.6-0.3,1.2-0.5,1.9-0.5c0.7,0,1.3,0.2,1.9,0.5c0.6,0.3,1,0.7,1.3,1.3 c0.3,0.5,0.5,1.1,0.5,1.8c0,0.7-0.2,1.3-0.5,1.8c-0.3,0.5-0.8,1-1.3,1.3C271.3,244.9,270.7,245.1,270,245.1z M270,243.7 c0.6,0,1.1-0.2,1.5-0.6c0.4-0.4,0.6-0.9,0.6-1.6c0-0.7-0.2-1.2-0.6-1.6c-0.4-0.4-0.9-0.6-1.5-0.6c-0.6,0-1.1,0.2-1.5,0.6 c-0.4,0.4-0.6,0.9-0.6,1.6c0,0.6,0.2,1.2,0.6,1.6C268.9,243.5,269.4,243.7,270,243.7z M282,238.1v6.9h-1.5v-0.9 c-0.3,0.3-0.6,0.6-1,0.7c-0.4,0.2-0.8,0.2-1.3,0.2c-0.9,0-1.7-0.3-2.2-0.8c-0.5-0.5-0.8-1.3-0.8-2.3v-4h1.6v3.7 c0,0.6,0.1,1.1,0.4,1.4c0.3,0.3,0.7,0.5,1.2,0.5c0.6,0,1-0.2,1.4-0.5c0.3-0.4,0.5-0.9,0.5-1.6v-3.5H282z M286.2,245.1 c-0.6,0-1.1-0.1-1.7-0.2c-0.5-0.1-1-0.3-1.3-0.6l0.6-1.2c0.3,0.2,0.7,0.4,1.1,0.5c0.4,0.1,0.9,0.2,1.3,0.2c1,0,1.5-0.3,1.5-0.8 c0-0.2-0.1-0.4-0.4-0.5c-0.2-0.1-0.6-0.2-1.2-0.3c-0.6-0.1-1-0.2-1.4-0.3c-0.4-0.1-0.7-0.3-0.9-0.6c-0.3-0.3-0.4-0.7-0.4-1.2 c0-0.7,0.3-1.2,0.8-1.6c0.6-0.4,1.3-0.6,2.2-0.6c0.5,0,1,0.1,1.4,0.2c0.5,0.1,0.9,0.2,1.2,0.4l-0.6,1.2c-0.6-0.3-1.3-0.5-2-0.5 c-0.5,0-0.8,0.1-1.1,0.2c-0.2,0.1-0.4,0.3-0.4,0.6c0,0.3,0.1,0.4,0.4,0.6c0.3,0.1,0.7,0.2,1.2,0.3c0.6,0.1,1,0.2,1.4,0.3 c0.4,0.1,0.7,0.3,0.9,0.6c0.3,0.3,0.4,0.6,0.4,1.1c0,0.6-0.3,1.2-0.8,1.6C288,244.9,287.2,245.1,286.2,245.1z M300.4,242.9h-4.6 L295,245h-1.7l4.1-9.1h1.7l4.1,9.1h-1.8L300.4,242.9z M299.9,241.6l-1.7-4l-1.7,4H299.9z M308,238c0.7,0,1.3,0.1,1.8,0.4 c0.5,0.3,1,0.7,1.3,1.2c0.3,0.5,0.5,1.2,0.5,1.9c0,0.7-0.2,1.3-0.5,1.9c-0.3,0.5-0.7,1-1.3,1.2c-0.5,0.3-1.1,0.4-1.8,0.4 c-0.5,0-0.9-0.1-1.3-0.2c-0.4-0.2-0.7-0.4-1-0.7v0.9h-1.5v-9.6h1.6v3.5c0.3-0.3,0.6-0.5,1-0.7C307.1,238.1,307.5,238,308,238z  M307.8,243.7c0.6,0,1.1-0.2,1.5-0.6c0.4-0.4,0.6-0.9,0.6-1.6c0-0.7-0.2-1.2-0.6-1.6c-0.4-0.4-0.9-0.6-1.5-0.6 c-0.4,0-0.7,0.1-1.1,0.3c-0.3,0.2-0.6,0.4-0.7,0.8c-0.2,0.3-0.3,0.7-0.3,1.1c0,0.4,0.1,0.8,0.3,1.1c0.2,0.3,0.4,0.6,0.7,0.8 C307.1,243.6,307.4,243.7,307.8,243.7z M316.2,245.1c-0.7,0-1.3-0.2-1.9-0.5c-0.6-0.3-1-0.7-1.3-1.3c-0.3-0.5-0.5-1.2-0.5-1.8 c0-0.7,0.2-1.3,0.5-1.8c0.3-0.5,0.8-1,1.3-1.3c0.6-0.3,1.2-0.5,1.9-0.5c0.7,0,1.3,0.2,1.9,0.5c0.6,0.3,1,0.7,1.3,1.3 c0.3,0.5,0.5,1.1,0.5,1.8c0,0.7-0.2,1.3-0.5,1.8c-0.3,0.5-0.8,1-1.3,1.3C317.5,244.9,316.9,245.1,316.2,245.1z M316.2,243.7 c0.6,0,1.1-0.2,1.5-0.6c0.4-0.4,0.6-0.9,0.6-1.6c0-0.7-0.2-1.2-0.6-1.6c-0.4-0.4-0.9-0.6-1.5-0.6c-0.6,0-1.1,0.2-1.5,0.6 c-0.4,0.4-0.6,0.9-0.6,1.6c0,0.6,0.2,1.2,0.6,1.6C315.1,243.5,315.6,243.7,316.2,243.7z M328.1,238.1v6.9h-1.5v-0.9 c-0.3,0.3-0.6,0.6-1,0.7c-0.4,0.2-0.8,0.2-1.3,0.2c-0.9,0-1.7-0.3-2.2-0.8c-0.5-0.5-0.8-1.3-0.8-2.3v-4h1.6v3.7 c0,0.6,0.1,1.1,0.4,1.4c0.3,0.3,0.7,0.5,1.2,0.5c0.6,0,1-0.2,1.4-0.5c0.3-0.4,0.5-0.9,0.5-1.6v-3.5H328.1z M334.4,244.6 c-0.2,0.2-0.4,0.3-0.7,0.4c-0.3,0.1-0.6,0.1-0.9,0.1c-0.8,0-1.4-0.2-1.8-0.6c-0.4-0.4-0.6-1-0.6-1.7v-3.3h-1.1v-1.3h1.1v-1.6h1.6 v1.6h1.9v1.3h-1.9v3.3c0,0.3,0.1,0.6,0.2,0.8c0.2,0.2,0.4,0.3,0.7,0.3c0.4,0,0.7-0.1,0.9-0.3L334.4,244.6z M162.1,258.8v3.2h-1.7 v-3.2l-3.6-5.9h1.8l2.7,4.4l2.7-4.4h1.7L162.1,258.8z M169,262.1c-0.7,0-1.3-0.2-1.9-0.5c-0.6-0.3-1-0.7-1.3-1.3 c-0.3-0.5-0.5-1.2-0.5-1.8s0.2-1.3,0.5-1.8c0.3-0.5,0.8-1,1.3-1.3c0.6-0.3,1.2-0.5,1.9-0.5c0.7,0,1.3,0.2,1.9,0.5 c0.6,0.3,1,0.7,1.3,1.3c0.3,0.5,0.5,1.1,0.5,1.8s-0.2,1.3-0.5,1.8c-0.3,0.5-0.7,1-1.3,1.3C170.4,261.9,169.7,262.1,169,262.1z  M169,260.7c0.6,0,1.1-0.2,1.5-0.6c0.4-0.4,0.6-0.9,0.6-1.6s-0.2-1.2-0.6-1.6c-0.4-0.4-0.9-0.6-1.5-0.6c-0.6,0-1.1,0.2-1.5,0.6 c-0.4,0.4-0.6,0.9-0.6,1.6s0.2,1.2,0.6,1.6C167.9,260.5,168.4,260.7,169,260.7z M181,255.1v6.9h-1.5v-0.9c-0.3,0.3-0.6,0.6-1,0.7 c-0.4,0.2-0.8,0.2-1.3,0.2c-0.9,0-1.7-0.3-2.2-0.8c-0.5-0.5-0.8-1.3-0.8-2.3v-4h1.6v3.7c0,0.6,0.1,1.1,0.4,1.4 c0.3,0.3,0.7,0.5,1.2,0.5c0.6,0,1-0.2,1.4-0.5c0.3-0.4,0.5-0.9,0.5-1.6v-3.5H181z M184.7,256.1c0.5-0.7,1.3-1.1,2.5-1.1v1.5 c-0.1,0-0.3,0-0.4,0c-0.6,0-1.1,0.2-1.5,0.6c-0.4,0.4-0.5,0.9-0.5,1.6v3.4h-1.6v-6.9h1.5V256.1z M198.8,257.3 c0.5,0.2,0.9,0.4,1.2,0.8c0.3,0.4,0.4,0.9,0.4,1.4c0,0.8-0.3,1.4-0.9,1.8c-0.6,0.4-1.5,0.6-2.7,0.6h-4.5v-9.1h4.3 c1.1,0,1.9,0.2,2.5,0.6c0.6,0.4,0.9,1,0.9,1.7c0,0.5-0.1,0.8-0.3,1.2C199.4,256.8,199.1,257.1,198.8,257.3z M194,254.2v2.5h2.4 c0.6,0,1-0.1,1.4-0.3c0.3-0.2,0.5-0.5,0.5-0.9c0-0.4-0.2-0.7-0.5-0.9c-0.3-0.2-0.8-0.3-1.4-0.3H194z M196.7,260.7c1.3,0,2-0.4,2-1.3 s-0.7-1.3-2-1.3H194v2.6H196.7z M208.8,255.1v6.9h-1.5v-0.9c-0.3,0.3-0.6,0.6-1,0.7c-0.4,0.2-0.8,0.2-1.3,0.2 c-0.9,0-1.7-0.3-2.2-0.8c-0.5-0.5-0.8-1.3-0.8-2.3v-4h1.6v3.7c0,0.6,0.1,1.1,0.4,1.4c0.3,0.3,0.7,0.5,1.2,0.5c0.6,0,1-0.2,1.4-0.5 c0.3-0.4,0.5-0.9,0.5-1.6v-3.5H208.8z M213,262.1c-0.6,0-1.1-0.1-1.7-0.2s-1-0.3-1.3-0.6l0.6-1.2c0.3,0.2,0.7,0.4,1.1,0.5 c0.4,0.1,0.9,0.2,1.3,0.2c1,0,1.5-0.3,1.5-0.8c0-0.2-0.1-0.4-0.4-0.5c-0.2-0.1-0.6-0.2-1.2-0.3c-0.6-0.1-1-0.2-1.4-0.3 c-0.4-0.1-0.7-0.3-0.9-0.6c-0.3-0.3-0.4-0.7-0.4-1.2c0-0.7,0.3-1.2,0.8-1.6c0.6-0.4,1.3-0.6,2.2-0.6c0.5,0,1,0.1,1.4,0.2 c0.5,0.1,0.9,0.2,1.2,0.4l-0.6,1.2c-0.6-0.3-1.3-0.5-2-0.5c-0.5,0-0.8,0.1-1.1,0.2c-0.2,0.1-0.4,0.3-0.4,0.6c0,0.3,0.1,0.4,0.4,0.6 c0.3,0.1,0.7,0.2,1.2,0.3c0.6,0.1,1,0.2,1.4,0.3c0.4,0.1,0.7,0.3,0.9,0.6c0.3,0.3,0.4,0.6,0.4,1.1c0,0.6-0.3,1.2-0.8,1.6 C214.8,261.9,214,262.1,213,262.1z M217.6,255.1h1.6v6.9h-1.6V255.1z M218.4,253.9c-0.3,0-0.5-0.1-0.7-0.3c-0.2-0.2-0.3-0.4-0.3-0.7 c0-0.3,0.1-0.5,0.3-0.7c0.2-0.2,0.4-0.3,0.7-0.3c0.3,0,0.5,0.1,0.7,0.3c0.2,0.2,0.3,0.4,0.3,0.7c0,0.3-0.1,0.5-0.3,0.7 C219,253.8,218.7,253.9,218.4,253.9z M225.3,255c0.9,0,1.6,0.3,2.1,0.8c0.5,0.5,0.8,1.3,0.8,2.3v4h-1.6v-3.8c0-0.6-0.1-1.1-0.4-1.4 c-0.3-0.3-0.7-0.5-1.2-0.5c-0.6,0-1.1,0.2-1.4,0.5c-0.3,0.4-0.5,0.9-0.5,1.5v3.5h-1.6v-6.9h1.5v0.9c0.3-0.3,0.6-0.6,1-0.7 C224.3,255.1,224.8,255,225.3,255z M236.8,258.6c0,0.1,0,0.3,0,0.5h-5.4c0.1,0.5,0.3,0.9,0.7,1.2c0.4,0.3,0.9,0.4,1.5,0.4 c0.8,0,1.4-0.3,1.9-0.8l0.9,1c-0.3,0.4-0.7,0.7-1.2,0.8c-0.5,0.2-1,0.3-1.6,0.3c-0.8,0-1.4-0.2-2-0.5c-0.6-0.3-1-0.7-1.4-1.3 c-0.3-0.5-0.5-1.2-0.5-1.8c0-0.7,0.2-1.3,0.5-1.8c0.3-0.5,0.7-1,1.3-1.3c0.5-0.3,1.2-0.5,1.8-0.5c0.7,0,1.3,0.2,1.8,0.5 c0.5,0.3,1,0.7,1.2,1.3C236.7,257.2,236.8,257.9,236.8,258.6z M233.3,256.3c-0.5,0-1,0.2-1.3,0.5c-0.4,0.3-0.6,0.7-0.7,1.2h3.9 c-0.1-0.5-0.3-0.9-0.6-1.2C234.3,256.4,233.9,256.3,233.3,256.3z M240.5,262.1c-0.6,0-1.1-0.1-1.7-0.2s-1-0.3-1.3-0.6l0.6-1.2 c0.3,0.2,0.7,0.4,1.1,0.5c0.4,0.1,0.9,0.2,1.3,0.2c1,0,1.5-0.3,1.5-0.8c0-0.2-0.1-0.4-0.4-0.5c-0.2-0.1-0.6-0.2-1.2-0.3 c-0.6-0.1-1-0.2-1.4-0.3c-0.4-0.1-0.7-0.3-0.9-0.6c-0.3-0.3-0.4-0.7-0.4-1.2c0-0.7,0.3-1.2,0.8-1.6c0.6-0.4,1.3-0.6,2.2-0.6 c0.5,0,1,0.1,1.4,0.2c0.5,0.1,0.9,0.2,1.2,0.4l-0.6,1.2c-0.6-0.3-1.3-0.5-2-0.5c-0.5,0-0.8,0.1-1.1,0.2c-0.2,0.1-0.4,0.3-0.4,0.6 c0,0.3,0.1,0.4,0.4,0.6c0.3,0.1,0.7,0.2,1.2,0.3c0.6,0.1,1,0.2,1.4,0.3c0.4,0.1,0.7,0.3,0.9,0.6c0.3,0.3,0.4,0.6,0.4,1.1 c0,0.6-0.3,1.2-0.8,1.6C242.3,261.9,241.5,262.1,240.5,262.1z M247.2,262.1c-0.6,0-1.1-0.1-1.7-0.2c-0.5-0.1-1-0.3-1.3-0.6l0.6-1.2 c0.3,0.2,0.7,0.4,1.1,0.5c0.4,0.1,0.9,0.2,1.3,0.2c1,0,1.5-0.3,1.5-0.8c0-0.2-0.1-0.4-0.4-0.5c-0.2-0.1-0.6-0.2-1.2-0.3 c-0.6-0.1-1-0.2-1.4-0.3c-0.4-0.1-0.7-0.3-0.9-0.6c-0.3-0.3-0.4-0.7-0.4-1.2c0-0.7,0.3-1.2,0.8-1.6c0.6-0.4,1.3-0.6,2.2-0.6 c0.5,0,1,0.1,1.4,0.2c0.5,0.1,0.9,0.2,1.2,0.4l-0.6,1.2c-0.6-0.3-1.3-0.5-2-0.5c-0.5,0-0.8,0.1-1.1,0.2c-0.2,0.1-0.4,0.3-0.4,0.6 c0,0.3,0.1,0.4,0.4,0.6c0.3,0.1,0.7,0.2,1.2,0.3c0.6,0.1,1,0.2,1.4,0.3c0.4,0.1,0.7,0.3,0.9,0.6c0.3,0.3,0.4,0.6,0.4,1.1 c0,0.6-0.3,1.2-0.8,1.6C249,261.9,248.2,262.1,247.2,262.1z"></path><g>	<defs>		<rect id="SVGID_1_" x="43" y="27" width="90" height="184"></rect>	</defs>	<clipPath id="SVGID_00000044889687454635917640000008390696419632689849_">		<use xlink:href="#SVGID_1_" style="overflow:visible;"></use>	</clipPath>	<g style="clip-path:url(#SVGID_00000044889687454635917640000008390696419632689849_);">		<path class="st2" d="M76.7,54c0,0,0.5-2.5,3-3.1C79.7,50.9,76.5,50.7,76.7,54z"></path>		<path class="st2" d="M69.6,80.5c-1.4-1-9.4-5.5-9.4-5.5c-5.3-2.3-11.1-3.7-17.2-4V27c32.8,0.7,61.4,18.7,77.2,45.3l-38,22   C78.9,88.9,74.7,84.2,69.6,80.5z"></path>		<path class="st3" d="M69.6,158.3c2.9-2.1,5.5-4.6,7.9-7.3c3.1-3.6,8.2-4.5,12.2-2.2l21.5,12.5c5,2.9,6.4,9.6,2.9,14.3   c-14.3,18.8-35.6,31.9-60.1,35.3c-5.8,0.8-11-3.7-11-9.6v-25c0-4.6,3.2-8.5,7.6-9.5c3.2-0.7,6.3-1.6,9.2-2.9   c0.2-0.1,0.5-0.2,0.7-0.3C62.1,162.8,68.8,159.3,69.6,158.3z"></path>		<path class="st3" d="M88.9,113.9c-0.4-3.3-1.1-6.5-2.1-9.6c-1.3-3.8,0.3-8,3.8-10.1l23.7-13.7c4.4-2.6,10.1-0.6,12,4.2   c4.3,10.7,6.7,22.5,6.7,34.7s-2.4,24-6.7,34.7c-1.9,4.8-7.6,6.8-12,4.2l-23.7-13.7c-3.5-2-5-6.2-3.8-10.1c1-2.9,1.7-6,2-9.2   c0-0.3,0.1-0.6,0.2-0.9C90,120.1,88.9,113.9,88.9,113.9z"></path>		<path class="st3" d="M43,37.2v25.4c0,4.5,3.1,8.4,7.4,9.3c3.2,0.6,6.3,1.6,9.3,2.9c0.3,0.1,0.6,0.3,0.9,0.4c1.7,1,7.8,4.4,9,5.3   c2.9,2.2,5.6,4.7,8,7.4c3,3.5,8,4.4,11.9,2.1l21.9-12.7c4.9-2.9,6.2-9.4,2.8-13.9C99.8,44.5,78.4,31.3,53.8,27.9   C48.1,27.1,43,31.5,43,37.2z"></path>	</g></g><g>	<g>		<path class="st4" d="M114.5,37.5l20.5-20.2h20.5"></path>		<path class="st4" d="M156.5,17.4c0,1-0.8,1.9-1.9,1.9c-1.1,0-1.9-0.8-1.9-1.9c0-1,0.8-1.9,1.9-1.9   C155.7,15.5,156.5,16.3,156.5,17.4z"></path>	</g></g><path class="st4" d="M112.5,203.5l20.5,20.2h20.5"></path><path class="st3" d="M155.8,223.6c0-1.7-1.4-3.1-3.2-3.1c-1.7,0-3.2,1.4-3.2,3.1c0,1.7,1.4,3.1,3.2,3.1 C154.4,226.8,155.8,225.4,155.8,223.6z"></path><g>	<rect x="145.7" y="113.9" class="st3" width="30.5" height="2"></rect></g><g>	<path class="st3" d="M178.5,114.9c0-1.7-1.4-3.1-3.2-3.1c-1.7,0-3.2,1.4-3.2,3.1c0,1.7,1.4,3.1,3.2,3.1  C177.1,118,178.5,116.6,178.5,114.9z"></path></g></svg>